<?xml version="1.0" encoding="UTF-8"?>
<svg width="24px" height="24px" viewBox="0 0 24 24" version="1.1" xmlns="http://www.w3.org/2000/svg" xmlns:xlink="http://www.w3.org/1999/xlink">
    <!-- Generator: Sketch 62 (91390) - https://sketch.com -->
    <title>002-instagram</title>
    <desc>Created with Sketch.</desc>
    <g id="Website" stroke="none" stroke-width="1" fill="none" fill-rule="evenodd">
        <g id="Verify-Focus" transform="translate(-708.000000, -667.000000)" fill="#FEF8F3" fill-rule="nonzero">
            <g id="Group-3" transform="translate(700.000000, 659.000000)">
                <g id="002-instagram" transform="translate(8.000000, 8.000000)">
                    <path d="M23.904057,7.04093567 C23.8479532,5.76845759 23.6421783,4.89364033 23.347405,4.13559944 C23.0433114,3.33095761 22.5754751,2.61056285 21.9625366,2.01169591 C21.3636696,1.40350877 20.6385234,0.930921076 19.8432018,0.631578947 C19.0807748,0.336805567 18.2105263,0.13103069 16.9380482,0.0749268772 C15.6560673,0.0140716257 15.2490863,0 11.9976243,0 C8.74616229,0 8.33918129,0.0140716257 7.06195177,0.0701754386 C5.78947368,0.126279251 4.91465642,0.332236819 4.15679822,0.626827509 C3.35197371,0.930921076 2.63157895,1.39875733 2.032712,2.01169591 C1.42452487,2.61056285 0.95211986,3.33570905 0.652595041,4.13103069 C0.357821661,4.89364033 0.152046784,5.76370615 0.0959429708,7.03618423 C0.0350877193,8.31816519 0.0210160936,8.7251462 0.0210160936,11.9766082 C0.0210160936,15.2280702 0.0350877193,15.6350512 0.0911915322,16.9122807 C0.147295345,18.1847588 0.353252912,19.059576 0.648026292,19.8176169 C0.95211986,20.6222588 1.42452487,21.3426535 2.032712,21.9415205 C2.63157895,22.5497076 3.35672515,23.0222953 4.15204678,23.3216374 C4.91465642,23.6164108 5.78472225,23.8221857 7.05738302,23.8782895 C8.33442985,23.934576 8.74159354,23.9484649 11.9930555,23.9484649 C15.2445175,23.9484649 15.6514985,23.934576 16.928728,23.8782895 C18.2012061,23.8221857 19.0760234,23.6164108 19.8338816,23.3216374 C21.4433479,22.6993787 22.715826,21.4269006 23.3380848,19.8176169 C23.6326755,19.0550073 23.838633,18.1847588 23.8947368,16.9122807 C23.9508407,15.6350512 23.9649123,15.2280702 23.9649123,11.9766082 C23.9649123,8.7251462 23.9601608,8.31816519 23.904057,7.04093567 Z M21.7474415,16.8187135 C21.6959064,17.9883041 21.4994517,18.619883 21.3357091,19.0409357 C20.9332968,20.0842471 20.1052632,20.9122807 19.0619518,21.314693 C18.6408991,21.4784356 18.0047514,21.6748903 16.8397295,21.7262427 C15.5765716,21.7825292 15.1977339,21.7964182 12.0023757,21.7964182 C8.80701754,21.7964182 8.42342835,21.7825292 7.1648392,21.7262427 C5.99524856,21.6748903 5.36366961,21.4784356 4.94261698,21.314693 C4.42342835,21.122807 3.95084065,20.8187135 3.56725146,20.4210526 C3.16959064,20.032712 2.86549708,19.5648757 2.67361113,19.0456871 C2.50986844,18.6246345 2.31341375,17.9883041 2.26206138,16.8234649 C2.20577488,15.560307 2.19188594,15.1812865 2.19188594,11.9859284 C2.19188594,8.7905702 2.20577488,8.40698101 2.26206138,7.14857455 C2.31341375,5.97898391 2.50986844,5.34740496 2.67361113,4.92635233 C2.86549708,4.40698101 3.16959064,3.934576 3.5720029,3.55080412 C3.96016084,3.1531433 4.4279971,2.84904973 4.94736842,2.65734648 C5.36842105,2.49360379 6.00475144,2.2971491 7.16959064,2.24561404 C8.43274854,2.18951022 8.81176898,2.1754386 12.0069445,2.1754386 C15.2070541,2.1754386 15.5858918,2.18951022 16.844481,2.24561404 C18.0140716,2.2971491 18.6456506,2.49360379 19.0667032,2.65734648 C19.5858918,2.84904973 20.0584795,3.1531433 20.4420687,3.55080412 C20.8397295,3.93914475 21.1438231,4.40698101 21.3357091,4.92635233 C21.4994517,5.34740496 21.6959064,5.98355265 21.7474415,7.14857455 C21.8035453,8.41173244 21.8176169,8.7905702 21.8176169,11.9859284 C21.8176169,15.1812865 21.8035453,15.5555556 21.7474415,16.8187135 Z" id="Shape"></path>
                    <path d="M11.9976243,5.8245614 C8.60124267,5.8245614 5.8455775,8.58004388 5.8455775,11.9766082 C5.8455775,15.3731725 8.60124267,18.128655 11.9976243,18.128655 C15.3941886,18.128655 18.1496711,15.3731725 18.1496711,11.9766082 C18.1496711,8.58004388 15.3941886,5.8245614 11.9976243,5.8245614 Z M11.9976243,15.967288 C9.79422512,15.967288 8.00694447,14.18019 8.00694447,11.9766082 C8.00694447,9.77302634 9.79422512,7.98592837 11.9976243,7.98592837 C14.2012061,7.98592837 15.9883041,9.77302634 15.9883041,11.9766082 C15.9883041,14.18019 14.2012061,15.967288 11.9976243,15.967288 L11.9976243,15.967288 Z" id="Shape"></path>
                    <path d="M19.8293128,5.58132309 C19.8293128,6.37445174 19.1862208,7.01754386 18.3929094,7.01754386 C17.5997807,7.01754386 16.9566886,6.37445174 16.9566886,5.58132309 C16.9566886,4.7880117 17.5997807,4.14510232 18.3929094,4.14510232 C19.1862208,4.14510232 19.8293128,4.7880117 19.8293128,5.58132309 L19.8293128,5.58132309 Z" id="Path"></path>
                </g>
            </g>
        </g>
    </g>
</svg>