<?xml version="1.0" encoding="UTF-8"?>
<svg width="201px" height="121px" viewBox="0 0 201 121" version="1.1" xmlns="http://www.w3.org/2000/svg" xmlns:xlink="http://www.w3.org/1999/xlink">
    <!-- Generator: Sketch 62 (91390) - https://sketch.com -->
    <title>Logo Color Rect Copy</title>
    <desc>Created with Sketch.</desc>
    <g id="Website" stroke="none" stroke-width="1" fill="none" fill-rule="evenodd">
        <g id="Cart-All" transform="translate(-818.000000, -40.000000)">
            <g id="Logo-Color-Rect-Copy" transform="translate(820.000000, 40.000000)">
                <g id="House" transform="translate(87.569667, 45.405217)" fill-rule="nonzero">
                    <polygon id="Path" fill="#11CC16" points="110.703229 13.8153217 110.703229 6.78078827 100.923007 6.78078827 94.7476221 6.78078827 94.7476221 13.8153217 94.7476221 22.2813089 94.7476221 29.3144633 94.7476221 41.1025817 94.7476221 48.1371151 94.7476221 48.2750201 100.923007 48.2750201 100.923007 48.1371151 110.703229 48.1371151 110.703229 41.1025817 100.923007 41.1025817 100.923007 29.3144633 110.703229 29.3144633 110.703229 22.2813089 100.923007 22.2813089 100.923007 13.8153217"></polygon>
                    <polygon id="Path" fill="#E3201B" points="109.186274 11.6088419 109.186274 4.57430846 99.4060526 4.57430846 93.2306672 4.57430846 93.2306672 11.6088419 93.2306672 20.0748291 93.2306672 27.1079835 93.2306672 38.8961019 93.2306672 45.9306353 93.2306672 46.0685403 99.4060526 46.0685403 99.4060526 45.9306353 109.186274 45.9306353 109.186274 38.8961019 99.4060526 38.8961019 99.4060526 27.1079835 109.186274 27.1079835 109.186274 20.0748291 99.4060526 20.0748291 99.4060526 11.6088419"></polygon>
                    <polygon id="Path" fill="#11CC16" points="72.6055972 5.67616931 72.6055972 5.89268014 72.6055972 30.493551 85.8872266 30.3611622 85.8872266 42.5933346 72.6055972 43.3449168 72.6055972 49.6940625 72.6055972 49.8429998 90.9635092 48.3701746 90.9635092 48.2308905 90.9635092 24.385739 78.2031607 24.218874 78.2031607 12.3438755 90.9635092 13.0733929 90.9635092 7.35033587 90.9635092 7.14761553"></polygon>
                    <polygon id="Path" fill="#E3201B" points="71.0886423 3.4696895 71.0886423 3.68620033 71.0886423 28.2870712 84.3702717 28.1546824 84.3702717 40.3868548 71.0886423 41.138437 71.0886423 47.4875827 71.0886423 47.63652 89.4465543 46.1636948 89.4465543 46.0244107 89.4465543 22.1792592 76.6862058 22.0123942 76.6862058 10.1373957 89.4465543 10.8669131 89.4465543 5.14385606 89.4465543 4.94113572"></polygon>
                    <polygon id="Path" fill="#11CC16" points="61.928993 2.22302841 61.928993 37.3681146 55.4129823 37.3681146 55.4129823 2.22302841 49.238976 2.22302841 49.238976 43.7172603 49.2417341 43.7172603 55.4129823 43.7172603 61.928993 43.7172603 67.5996461 43.7172603 68.1029993 43.7172603 68.1029993 2.22302841"></polygon>
                    <polygon id="Path" fill="#E3201B" points="60.4120381 0.0165485986 60.4120381 35.1616348 53.8960275 35.1616348 53.8960275 0.0165485986 47.7220211 0.0165485986 47.7220211 41.5107805 47.7247792 41.5107805 53.8960275 41.5107805 60.4120381 41.5107805 66.0826912 41.5107805 66.5860445 41.5107805 66.5860445 0.0165485986"></polygon>
                    <path d="M26.5908398,5.60859587 L26.5908398,5.8251067 L26.5908398,11.9563625 L26.5908398,43.4262808 L26.5908398,49.7740474 L31.9236257,49.7740474 L39.6145869,49.7740474 L44.9473728,49.7740474 L44.9473728,43.4262808 L44.9473728,11.9563625 L44.9473728,5.8251067 L44.9473728,5.60859587 L26.5908398,5.60859587 Z M39.6159659,43.4262808 L31.9250047,43.4262808 L31.9250047,11.9563625 L39.6159659,11.9563625 L39.6159659,43.4262808 Z" id="Shape" fill="#11CC16"></path>
                    <path d="M25.0738849,3.40211606 L25.0738849,3.61862689 L25.0738849,9.74988266 L25.0738849,41.2198009 L25.0738849,47.5675675 L30.4066708,47.5675675 L38.097632,47.5675675 L43.4304179,47.5675675 L43.4304179,41.2198009 L43.4304179,9.74988266 L43.4304179,3.61862689 L43.4304179,3.40211606 L25.0738849,3.40211606 Z M38.0990111,41.2198009 L30.4080499,41.2198009 L30.4080499,9.74988266 L38.0990111,9.74988266 L38.0990111,41.2198009 Z" id="Shape" fill="#E3201B"></path>
                    <polygon id="Path" fill="#11CC16" points="17.003685 5.88716394 16.5017109 19.7011066 8.03572366 19.2653268 8.53769781 5.45000513 2.9001419 5.16040465 1.52385012 43.0429049 7.16002698 43.3338844 7.80266423 25.6875621 16.2686514 26.1233419 15.6260142 43.7696642 21.2635701 44.0606437 22.6412409 6.17676442"></polygon>
                    <polygon id="Path" fill="#E3201B" points="15.4867302 3.68068413 14.984756 17.4946268 6.51876879 17.058847 7.02074294 3.24352532 1.38318703 2.95392485 0.00689524941 40.8364251 5.64307211 41.1274046 6.28570936 23.4810823 14.7516966 23.9168621 14.1090593 41.5631844 19.7466152 41.8541639 21.1242861 3.97028461"></polygon>
                </g>
                <g id="Head" transform="translate(0.000000, 45.818932)">
                    <polygon id="Path-2" fill="#FEF6EE" points="22.8453403 14.7958262 24.0782109 8.93027992 33.1868423 6.27052466 44.172215 6.98936706 53.9167132 10.340116 56.7368702 8.88659743 56.7368702 2.25643401 60.7581797 0.136109986 66.5428961 1.41641601 69.7478305 6.27052466 70.8800527 8.25550855 75.7191663 9.34444199 80.1650619 14.3806937 80.1650619 21.463182 78.2961086 25.6713117 74.1360629 26.1316162 69.7478305 28.3073812 71.8385205 34.6231158 74.2158602 40.7881583 72.7186664 48.0787224 64.2292482 54.6696744 56.7368702 56.4417542 47.0407705 57.4811019 16.7361494 55.6466468 7.51768422 50.9636158 5.32898542 40.4550959 11.2512187 34.6231158 12.4845627 29.1273066"></polygon>
                    <g id="HeadNeaonGlow" transform="translate(0.000000, 0.137905)">
                        <path d="M53.8381074,56.3066066 C53.8381074,56.3066066 86.1713109,54.1497726 69.2214088,28.7007861" id="Path" stroke="#11CC16" stroke-width="2.61800208" stroke-linecap="round" stroke-linejoin="round"></path>
                        <path d="M69.1607306,28.6083898 C69.1607306,28.6083898 69.1827954,28.6401079 69.2214088,28.7007861 C69.200723,28.670447 69.1814163,28.6401079 69.1607306,28.6083898 M69.1579725,25.9937112 C68.6546193,25.9937112 68.1471289,26.1385114 67.6989377,26.4405234 C66.5033015,27.2458885 66.1833619,28.8648931 66.9832108,30.0632874 L67.0025175,30.0922475 L67.0411309,30.1515466 C67.5444841,30.908645 68.3760512,31.3196018 69.2227878,31.3196018 C69.7164877,31.3196018 70.2157037,31.1803178 70.6583788,30.8893383 C71.8622893,30.0977637 72.2001565,28.4828962 71.4154771,27.2748485 C71.3589361,27.1879684 71.3272179,27.1410807 71.3272179,27.1410807 C70.8211066,26.3963938 69.9964348,25.9937112 69.1579725,25.9937112 L69.1579725,25.9937112 Z" id="Shape" fill="#11CC16" fill-rule="nonzero"></path>
                        <path d="M54.6558839,10.8834617 C54.6558839,10.8834617 24.9897629,-4.69980199 14.4414104,20.5795614 C13.4788335,20.1189587 12.7217352,20.0555224 12.7217352,20.0555224 C12.7217352,20.0555224 5.2665915,18.5413257 4.1026734,27.1603874 C3.37177696,32.5662629 4.93286142,34.9478821 6.19745017,35.9725161 L6.00576223,35.8663293 C-5.83200195,48.3619003 2.58571853,52.7017703 10.6090307,55.596396 C11.8005298,56.0252805 12.8899792,56.4734717 13.8911695,56.9258 C14.0704459,58.388972 14.1656004,60.1844949 14.0842364,62.3592566 C13.7891198,70.3149953 13.07753,72.9669083 14.2566177,73.1144666 C15.4357053,73.2620249 13.7891198,64.6691651 14.6730907,61.7221355 C14.9640703,60.7512844 15.06612,59.1833047 15.1185238,57.50638 C20.0224252,59.9293707 22.4095606,62.3840795 23.2149257,63.1591055 C25.4545027,65.3090443 27.1231531,69.7123505 34.392125,67.9402714 C39.0712412,66.7997972 41.8776077,64.3478465 43.4538618,62.3799423 C43.6676145,62.1648105 43.8082776,61.9648483 43.9351502,61.7455794 C44.6605304,60.7292196 45.0301158,59.9252335 45.1542303,59.632875 C45.396943,59.6687303 45.6893016,59.6576979 46.0437174,59.5804711 C47.3827749,59.2894915 48.2295115,58.777864 48.9935051,58.1917678 C49.1410635,58.0842019 49.2886218,57.9669827 49.4375592,57.837352 C50.2249967,57.1933357 51.008297,56.4969155 52.2646114,55.9135774 M11.3233786,20.6388605 C12.4473042,20.6388605 13.3781629,20.8595085 14.1490518,21.2373682 C13.6456986,22.3957701 13.1754426,23.638294 12.7438,24.9704562 C10.6035145,24.7911797 8.31291268,25.3469368 8.72386955,28.7104395 C8.72386955,28.7104395 10.2077272,27.7947504 11.9549834,26.9811109 C11.6088419,27.756137 11.501276,28.3863628 11.527478,28.8924741 C11.2599423,29.0758877 10.9855114,29.2923985 10.7014271,29.554418 C10.7014271,29.554418 11.0406733,29.4082387 11.5688495,29.2427527 C11.6902058,29.8674623 12.0211778,30.2591125 12.274923,30.4770024 C12.3135364,30.5514711 12.3549079,30.6218026 12.3990375,30.687997 C12.0680655,30.8010791 11.7260611,30.9486374 11.3730244,31.1375673 C11.3730244,31.1375673 11.8156994,31.0727519 12.579693,31.0713729 C12.4017956,31.1996245 12.2514791,31.35132 12.1521876,31.5223222 C11.8625871,32.0270544 11.9825644,32.6365945 12.3811098,33.0889228 C12.0460007,32.9675665 11.6819315,32.8586215 11.3247576,32.7938062 C10.6779832,32.5262705 9.77470556,32.4890361 8.61630366,33.2364812 C8.01227981,33.6253732 7.36274731,34.4610775 7.44549031,35.7932397 C3.06149074,33.8487793 3.32902641,20.6388605 11.3233786,20.6388605 Z M44.7515477,60.2162131 C44.8577345,60.0383156 44.981849,59.8438696 45.1252702,59.6301169 C45.1266493,59.6301169 45.1280283,59.6301169 45.1294074,59.6301169 C45.00943,59.8287 44.8839365,60.0231461 44.7515477,60.2162131 Z" id="Shape" stroke="#11CC16" stroke-width="2.61800208" stroke-linecap="round" stroke-linejoin="round"></path>
                        <path d="M69.4544682,26.594977 C69.4544682,26.594977 81.3887659,29.3944482 80.0621199,17.3125922 C78.7354739,5.2307362 67.0962929,6.85249886 64.1506424,10.2408244" id="Path" stroke="#11CC16" stroke-width="2.61800208" stroke-linecap="round" stroke-linejoin="round"></path>
                        <path d="M56.7920322,8.71559525 C54.3207748,-0.0606781948 59.7707799,-0.0179276485 60.7581797,0.0592991449 C53.3747466,-0.718484988 55.9466746,6.79044161 56.7368702,8.74869245 C54.962033,9.8505533 54.9013548,10.9648256 54.9013548,10.9648256" id="Path" stroke="#11CC16" stroke-width="2.61800208" stroke-linecap="round" stroke-linejoin="round"></path>
                        <path d="M70.2405266,7.64958969 C70.2405266,7.64958969 69.8474974,0.308907173 60.9084961,0.0744686936" id="Path" stroke="#11CC16" stroke-width="2.61800208" stroke-linecap="round" stroke-linejoin="round"></path>
                    </g>
                    <g transform="translate(0.137905, 0.000000)" fill-rule="nonzero">
                        <path d="M54.050481,45.2411104 C48.5494511,46.3540037 45.0135672,49.7588778 45.0135672,49.7588778 L44.096499,48.9728194 C44.096499,48.9728194 47.6985773,46.1567995 46.7815091,41.6390321 C45.8644409,37.1212647 46.7815091,32.9951475 47.5675675,31.5554194 C48.353626,30.1143123 50.6456069,22.5185055 47.8944024,19.5066606 C45.1445769,16.4948156 43.8344795,14.2028347 32.6365945,14.7268737 C30.7376428,15.1199029 30.7376428,15.1199029 30.7376428,15.1199029 C30.7376428,15.1199029 28.5118563,15.9707767 26.6777199,15.1199029 C24.8449627,14.2690291 24.8449627,13.8098055 24.1237196,10.340116 C24.1237196,10.340116 15.3488252,15.1199029 12.5989997,25.7289336 C12.5989997,25.7289336 11.6819315,28.0209145 11.6819315,28.3477494 C11.6819315,28.6745842 11.8777566,30.7045456 12.7300095,31.2285846 L13.711893,33.8474003 C13.711893,33.8474003 11.943951,32.8655168 10.6338536,32.8655168 C9.32375625,32.8655168 7.16278508,34.0446044 7.68682404,36.0083714 L5.06800831,37.7763134 C5.06800831,37.7763134 -0.759856484,43.211149 1.07427986,48.2529553 C1.07427986,48.2529553 5.02525777,54.4490265 12.2721649,56.1755969 C12.2721649,56.1755969 21.0705031,59.9404031 23.7017303,63.3604468 C26.3315784,66.7804905 28.8317959,70.9893507 37.1171275,66.3860822 C45.4038383,61.7828137 42.9105161,62.9039813 45.1431979,59.6466655 L45.00943,59.4370499 L45.1431979,59.4508404 C45.1431979,59.4508404 48.2860525,60.0396947 50.8400529,56.3079857 C50.8400529,56.3079857 59.3529278,54.2132089 59.2219181,49.6292471 C59.2246762,49.6278681 59.551511,44.1282171 54.050481,45.2411104 Z M26.6404856,30.4976881 C28.2126025,28.9917656 31.8133017,30.4328728 31.8133017,30.4328728 C35.9380399,31.6119604 36.5930886,37.046796 36.5930886,37.046796 C35.0871661,37.3736308 32.0491192,36.4675951 32.0491192,36.4675951 C32.0491192,36.4675951 29.4951189,35.9435561 28.6442451,35.5505269 C27.7933713,35.1574977 25.8944196,33.258546 25.8944196,33.258546 C25.8944196,31.489225 26.6404856,30.4976881 26.6404856,30.4976881 Z M17.6435642,32.1442737 C17.4477391,32.8641377 15.6784181,33.4543711 15.6784181,33.4543711 L14.5655248,31.0313804 C15.7446125,30.5073415 17.6435642,32.1442737 17.6435642,32.1442737 Z M10.3097769,50.2181014 C9.85193235,49.1700235 10.8338159,47.0090523 10.8338159,47.0090523 C10.8338159,47.0090523 9.98294209,46.4850134 9.06587392,45.698955 C8.14880575,44.9128965 6.84008741,42.4250905 6.84008741,42.4250905 C8.1501848,41.5742168 12.0129035,42.1630711 12.994787,43.3421587 C13.9766705,44.5212464 22.6867496,46.0271688 22.6867496,46.0271688 C22.0978953,47.3372662 18.6268267,49.0390138 17.7097586,48.9741984 C16.7926904,48.9093831 16.0728264,49.9560819 14.23869,51.3309947 C12.4045537,52.7059074 10.7676215,51.2648003 10.3097769,50.2181014 Z" id="Shape" fill="#F9C18A"></path>
                        <path d="M28.9628056,27.1190159 C28.9628056,27.1190159 20.0293205,35.5160506 30.3915013,42.1272158 C30.3928803,42.1272158 21.9958456,35.8746036 28.9628056,27.1190159 Z" id="Path" fill="#E3201B"></path>
                        <path d="M26.3219251,30.5652616 C26.3219251,30.5652616 33.6308894,26.4887901 36.4413931,35.7656587 C39.2518968,45.0425272 36.0194038,35.9063218 36.0194038,35.9063218 C36.0194038,35.9063218 35.1271586,29.7543802 26.3219251,30.5652616 Z" id="Path" fill="#E3201B"></path>
                        <path d="M25.4875999,33.1978678 C25.4875999,33.1978678 31.9525857,36.2896976 35.3257418,37.1336761 C35.3271208,37.1336761 28.0181564,36.9930131 25.4875999,33.1978678 Z" id="Path" fill="#E3201B"></path>
                        <path d="M11.3137252,31.2727142 C11.3137252,31.2727142 14.1242289,30.8507249 17.9193742,32.1166927 C17.9193742,32.1166927 15.2495336,29.1641469 11.3137252,31.2727142 Z" id="Path" fill="#E3201B"></path>
                        <path d="M6.76837682,42.4568087 C6.76837682,42.4568087 9.15275406,40.9853625 14.1945604,43.0801392 C19.2363668,45.174916 22.2137355,45.977523 22.7074353,46.0271688 C22.7074353,46.0271688 19.5259673,46.2436797 13.5395117,43.9323921 C7.54754,41.6155883 6.76837682,42.4568087 6.76837682,42.4568087 Z" id="Path" fill="#E3201B"></path>
                        <path d="M14.3117797,44.261985 C14.3117797,44.261985 12.1618409,44.5584807 10.8048558,46.9180351 C8.36117943,51.1682668 11.5481637,55.737059 20.3671877,46.280914 C20.3671877,46.280914 14.8827063,51.5488846 12.2266562,51.4468349 C9.46441933,51.340648 9.8505533,46.7056614 14.3117797,44.261985 Z" id="Path" fill="#E3201B"></path>
                        <path d="M6.76837682,42.4568087 C6.76837682,42.4568087 9.30444955,46.3884799 11.003439,46.6008536 L10.6752251,47.1083439 C10.0256926,47.1607478 8.58458551,46.3057369 6.76837682,42.4568087 Z" id="Path" fill="#E3201B"></path>
                        <path d="M17.5994346,48.9411012 C17.5994346,48.9411012 21.7421004,47.5330913 22.7019191,46.3967542 C22.7019191,46.3967542 20.6429977,49.0321185 16.9374906,49.5258184 L17.5994346,48.9411012 Z" id="Path" fill="#E3201B"></path>
                        <path d="M20.0968939,41.5149176 C20.0968939,41.5149176 21.0842936,44.6122637 21.9875713,45.6837854 C22.892228,46.7553072 23.9403059,49.6678605 23.9403059,49.6678605 C23.9403059,49.6678605 23.6024387,46.7318633 22.3695681,45.3583296 C21.3807894,44.2550897 20.0968939,41.5149176 20.0968939,41.5149176 Z" id="Path" fill="#E3201B"></path>
                        <path d="M21.9420627,40.7454078 C21.9420627,40.7454078 27.6499501,49.0155699 28.698028,49.1327892 C29.7461059,49.2500084 24.7373968,44.9377194 21.9420627,40.7454078 Z" id="Path" fill="#E3201B"></path>
                        <path d="M20.0003604,54.6696744 C20.0003604,54.6696744 25.213169,58.5448046 27.9560992,60.5306364 C30.8052162,62.593695 36.1917851,61.4256398 38.7540598,59.2122647 C38.7540598,59.2122647 32.8668958,65.4414331 27.2224447,61.1925804 C27.2224447,61.1925804 24.7760102,58.9792053 23.4948728,57.8152872 C22.2137355,56.6499901 20.0003604,54.6696744 20.0003604,54.6696744 Z" id="Path" fill="#E3201B"></path>
                        <path d="M8.6645704,28.8442073 C8.6645704,28.8442073 13.6112223,25.7882328 16.0769635,25.8833872 C16.0769635,25.8833872 7.91850442,22.7377744 8.6645704,28.8442073 Z" id="Path" fill="#E3201B"></path>
                        <path d="M31.4133772,20.5188832 C31.4133772,20.5188832 34.55899,17.3732704 40.032439,18.8874672 C45.507267,20.4016639 45.6231072,27.0417891 45.6231072,27.0417891 C45.6231072,27.0417891 41.663855,20.403043 31.4133772,20.5188832 Z" id="Path" fill="#E3201B"></path>
                        <path d="M36.0759449,23.4535013 C24.1954302,19.3770299 21.2828768,31.490604 21.2828768,31.490604 C21.2828768,31.490604 18.9536616,38.4796288 25.9426864,43.0222191 C32.9317112,47.5648094 37.7073609,43.8372376 39.6876765,41.9741412 C41.6666131,40.1096658 47.9564596,27.5299728 36.0759449,23.4535013 Z M39.3015426,41.5687006 C37.4205185,43.3394006 32.8848235,46.8794217 26.2460773,42.5643746 C19.6073312,38.2493275 21.8207063,31.6105814 21.8207063,31.6105814 C21.8207063,31.6105814 24.5870803,20.1037892 35.8732246,23.9761612 C47.1579897,27.8485333 41.1825666,39.7980005 39.3015426,41.5687006 Z" id="Shape" fill="#E3201B"></path>
                        <path d="M17.4380857,32.3056225 C17.4380857,32.3056225 19.4184014,20.7740074 11.2640794,20.7740074 C3.10975748,20.7740074 2.99391729,34.5189976 7.65372684,36.0331943 L7.53788665,36.8482128 C7.53788665,36.8482128 2.8780771,35.9159751 4.04337425,27.2969133 C5.2086714,18.6778516 12.662436,20.1920484 12.662436,20.1920484 C12.662436,20.1920484 18.3703235,20.6581672 18.3703235,28.5794297 L18.137264,32.0739421 L17.4380857,32.3056225 Z" id="Path" fill="#E3201B"></path>
                        <path d="M13.3616143,39.6435469 C13.3616143,39.6435469 15.6908295,39.0615879 16.8561267,40.5757846 C18.0200448,42.0899814 14.293852,41.2749629 13.3616143,39.6435469 Z" id="Path" fill="#E3201B"></path>
                        <path d="M17.7883644,38.01351 C17.7883644,38.01351 19.4197804,39.1788071 18.0214238,41.6238626 C18.0200448,41.6238626 20.6995387,39.8766064 17.7883644,38.01351 Z" id="Path" fill="#E3201B"></path>
                        <path d="M24.9015037,13.2857666 C24.9015037,13.2857666 25.0973288,16.035592 30.991388,14.7585918 C36.8854472,13.4815916 45.5279528,14.3655626 47.9840406,18.9826216 C50.4401284,23.5996806 49.9478076,25.7606518 47.2958947,34.1094198 C46.2160987,37.2522744 47.1979822,41.967246 47.1979822,41.967246 C47.1979822,41.967246 47.7868365,46.7801301 43.957215,49.1369263 C43.957215,49.1369263 46.3140112,47.0738677 46.3140112,43.7351879 C46.3140112,40.3951291 45.037011,37.7432162 47.0021571,31.7526235 C48.9659241,25.7606518 50.7352451,22.421972 45.3321277,17.1167671 C44.2523316,16.4286212 38.9471267,13.7767083 30.6962713,15.3488252 C28.6332127,15.6425628 25.3924455,15.7418544 24.9015037,13.2857666 Z" id="Path" fill="#E3201B"></path>
                        <path d="M29.6344029,36.052501 C30.6024959,36.355892 31.7608978,36.4993132 32.540061,35.8497807 C34.8472114,33.9273852 33.3936929,29.5585551 29.91435,30.0384645 C26.650139,30.4894138 26.4115633,35.0416575 29.6344029,36.052501 Z" id="Path" fill="#E3201B"></path>
                        <path d="M14.0470021,30.8796849 C13.2830085,30.6976504 12.4197232,31.0879215 12.0928884,31.6574691 C11.6584877,32.4118094 12.1411552,33.4074834 13.1064901,33.7481087 C14.071825,34.088734 15.3460671,33.7122534 15.7832259,32.9592922 C16.1817713,32.2711463 15.8232183,31.3609733 14.9764817,30.9969042 C14.1297451,30.632835 12.9203183,30.908645 12.495571,31.5871375" id="Path" fill="#E3201B"></path>
                        <path d="M12.2790601,51.6412809 C12.2790601,51.6412809 14.3186749,54.5400437 14.0249373,62.4957825 C13.7298206,70.4515213 13.0182309,73.1034342 14.1973185,73.2509925 C15.3764062,73.3985509 13.7298206,64.8056911 14.6137916,61.8586615 C15.4977626,58.9116319 14.6358564,50.4621932 15.9625024,50.1670766 C15.9625024,50.1670766 13.7532645,51.6412809 12.2790601,51.6412809 Z" id="Path" fill="#E3201B"></path>
                        <path d="M47.0986906,14.7958262 C47.0986906,14.7958262 65.7062106,17.0836699 66.0992398,27.2982924 C66.0992398,27.2982924 67.2121331,37.0550703 59.2784591,42.298218 C59.2784591,42.298218 87.7737668,22.7157096 47.0986906,14.7958262 Z" id="Path" fill="#E3201B"></path>
                        <path d="M69.1014314,28.7435367 C69.1014314,28.7435367 84.4240547,51.3351318 53.7788082,56.4417542 C53.7788082,56.4431326 86.1919966,54.2821614 69.1014314,28.7435367 Z" id="Path" fill="#E3201B"></path>
                        <path d="M44.9377194,49.764394 C44.9377194,49.764394 56.5286337,41.5135386 58.6882258,47.6034228 C60.849197,53.6933071 52.2053123,55.0682198 50.4373703,56.4431326 C48.6694284,57.8180453 44.151661,61.5511333 44.3474861,56.4431326 C44.3474861,56.4431326 42.9725733,60.3720457 45.9844183,59.716997 C48.9962632,59.0619483 49.5203022,57.2940064 52.2053123,56.0501034 C54.8903224,54.8062004 59.8673134,53.3002779 59.2770801,48.519112 C58.6882258,43.7393251 53.6450404,45.1142378 53.6450404,45.1142378 C53.6450404,45.1142378 48.1467685,46.8173644 44.9377194,49.764394 Z" id="Path" fill="#E3201B"></path>
                        <path d="M48.8018172,50.0250344 C48.8018172,50.0250344 49.8498951,52.972064 46.9028655,53.5609183 C46.9028655,53.5622974 50.2429243,53.6919281 48.8018172,50.0250344 Z" id="Path" fill="#E3201B"></path>
                        <path d="M51.1710249,47.1000696 C51.1710249,47.1000696 56.5286337,45.9844183 56.9754458,50.2249967 C56.9754458,50.2249967 58.5379093,45.3142 51.1710249,47.1000696 Z" id="Path" fill="#E3201B"></path>
                        <path d="M56.8720171,9.34444199 C56.8720171,9.34444199 52.1570456,-0.821913729 60.850576,0.209615582 C60.850576,0.210994632 53.7788082,-0.820534679 56.8720171,9.34444199 Z" id="Path" fill="#E3201B"></path>
                        <path d="M64.0913432,10.3759713 C64.0913432,10.3759713 76.4669369,3.59794114 78.9726705,17.5952974 C79.8566415,24.3733276 76.3207576,27.0252405 69.3965481,26.7301238 C69.3965481,26.7301238 81.3308458,29.5295951 80.0041998,17.4477391 C78.6775538,5.36588309 67.0383728,6.98764575 64.0913432,10.3759713 Z" id="Path" fill="#E3201B"></path>
                        <path d="M61.3842683,19.4115061 C61.3842683,19.4115061 58.7447668,12.8375753 54.520737,12.247342 C54.520737,12.247342 55.5881217,7.32965012 60.0079765,8.41082522 C64.4278314,9.49062128 70.4198031,17.7414767 68.9455988,27.4665365 C68.9469779,27.4651574 68.5539486,22.5543608 61.3842683,19.4115061 Z" id="Path" fill="#E3201B"></path>
                        <path d="M60.850576,0.210994632 C60.850576,0.210994632 68.7084022,1.30320214 70.1826065,7.78611563 C70.1812275,7.78473658 69.7881983,0.444054062 60.850576,0.210994632 Z" id="Path" fill="#E3201B"></path>
                        <path d="M16.6616807,44.6825952 C16.6616807,44.6825952 14.7875519,44.6825952 13.3395495,47.9192253 C13.3395495,47.9192253 15.5543036,45.0232205 17.0878071,45.0232205 L16.6616807,44.6825952 Z" id="Path" fill="#E3201B"></path>
                        <path d="M12.1425342,32.5373029 C12.1425342,32.5373029 15.0895638,34.3052448 17.6918309,32.1442737 C17.6918309,32.1442737 16.0714473,35.1892158 12.1425342,32.5373029 Z" id="Path" fill="#E3201B"></path>
                        <path d="M19.4777005,30.2315315 C19.4777005,30.2315315 21.7007289,30.4549376 21.7655443,30.9900089 C21.8303596,31.5250803 21.7379633,31.7429702 21.7379633,31.7429702 C21.7379633,31.7429702 19.0612275,32.6710707 17.9814314,31.0079366 L17.9317856,30.5445758 C17.9317856,30.5445758 18.9012577,30.1267237 19.4777005,30.2315315 Z" id="Path" fill="#E3201B"></path>
                        <path d="M11.5205827,29.3254957 C11.9411929,26.6859942 17.8421474,-3.37177696 54.5621085,11.8253527 C55.4060871,12.3121573 20.8222742,-10.7207338 11.5205827,29.3254957 Z" id="Path" fill="#E3201B"></path>
                        <path d="M8.62871511,34.0004748 C8.96520328,33.5867599 10.4711257,32.0036106 12.4707481,33.9453128 C12.4707481,33.9453128 11.1482392,31.7029777 8.55838356,33.3730071 C7.67579164,33.9425547 6.69390812,35.4636467 8.04675606,38.0990111 C9.09483397,40.3123861 9.90985245,40.778505 9.90985245,40.778505 L10.8420902,39.8462673 C10.8407111,39.8462673 6.64702043,36.7861556 8.62871511,34.0004748 Z" id="Path" fill="#E3201B"></path>
                        <path d="M12.8637773,25.4655351 C12.8637773,25.4655351 10.9000103,29.2634385 12.5369425,30.8355553 C12.5355634,30.8341763 9.91674769,29.5902733 12.8637773,25.4655351 Z" id="Path" fill="#E3201B"></path>
                        <path d="M10.6421279,29.6895649 C10.6421279,29.6895649 14.6124125,27.9685106 16.5982444,29.6895649 C16.5982444,29.6895649 14.2166252,26.3812242 10.6421279,29.6895649 Z" id="Path" fill="#E3201B"></path>
                        <polygon id="Path" fill="#E3201B" points="42.494043 35.6318908 53.0520489 45.5031299 51.5792237 45.9444258 42.2251283 36.6620411"></polygon>
                        <path d="M27.9340344,29.4661588 C27.9340344,29.4661588 32.3538893,26.0281875 35.5960355,28.9752171 C35.5946565,28.9752171 32.1566851,24.5553622 27.9340344,29.4661588 Z" id="Path" fill="#E3201B"></path>
                        <path d="M7.12968788,36.660662 C7.12968788,36.660662 -10.7579681,49.0238442 13.8373865,56.3893496 C13.8373865,56.3893496 21.4373304,59.6949322 25.4117522,64.8070701 C29.7874774,70.4363517 41.2018733,66.3226459 45.1445769,59.6466655 C45.1445769,59.6466655 42.8043293,66.0123597 34.3342049,68.0767974 C27.0638539,69.8488765 25.3952036,65.4441912 23.1570056,63.2956314 C22.1337506,62.3137479 18.5730438,58.6261685 10.5497316,55.7329219 C2.52641938,52.8396752 -5.89130109,48.4984262 5.94646309,36.0042343 L7.12968788,36.660662 Z" id="Path" fill="#E3201B"></path>
                    </g>
                </g>
                <g id="Scranny's" transform="translate(7.153132, 0.000000)" fill-rule="nonzero">
                    <polygon id="Path" fill="#11CC16" points="173.31761 5.24314765 173.278997 5.43069843 168.83294 26.8569964 182.197312 29.692323 179.986695 40.3454833 166.51062 38.0507443 165.36325 43.5793553 165.337048 43.710365 184.041102 46.5043201 184.065925 46.3829637 188.375456 25.6144725 175.588905 22.6357247 177.734707 12.2928506 190.419208 15.7611611 191.453495 10.7772748 191.48935 10.6007564"></polygon>
                    <polygon id="Path" fill="#E3201B" points="171.66275 2.62295287 171.624137 2.81050366 167.17808 24.2368017 180.542452 27.0721282 178.331835 37.7252885 164.85576 35.4305495 163.70839 40.9591605 163.682188 41.0901703 182.386242 43.8841253 182.411065 43.7627689 186.720596 22.9942777 173.934045 20.01553 176.079847 9.67265587 188.764348 13.1409663 189.798635 8.15708005 189.83449 7.98056166"></polygon>
                    <polygon id="Path" fill="#11CC16" points="162.991284 15.5198274 166.252737 17.529103 169.792759 11.4061216 166.529926 9.39684589"></polygon>
                    <polygon id="Path" fill="#E3201B" points="161.336425 12.8996326 164.597878 14.9089083 168.137899 8.78592679 164.875067 6.77665112"></polygon>
                    <polygon id="Path" fill="#11CC16" points="159.030653 4.85977178 152.345019 18.0434886 145.038813 5.52999002 140.359697 8.44116432 149.380062 23.8892811 149.706897 24.4505544 149.706897 26.8156249 149.706897 40.5454456 155.184483 40.5454456 155.184483 27.1410807 155.184483 24.6353471 155.654739 23.7100046 163.884909 7.48272465"></polygon>
                    <polygon id="Path" fill="#E3201B" points="157.375793 2.23957701 150.69016 15.4232939 143.383953 2.90979525 138.704837 5.82096955 147.725202 21.2690863 148.052037 21.8303596 148.052037 24.1954302 148.052037 37.9252508 153.529623 37.9252508 153.529623 24.5208859 153.529623 22.0151523 153.999879 21.0898098 162.230049 4.86252988"></polygon>
                    <polygon id="Path" fill="#11CC16" points="138.311808 7.37102161 131.969557 7.37102161 131.969557 28.5366792 124.915717 7.23863283 118.572088 7.23863283 118.572088 44.1985487 124.915717 44.1985487 124.915717 25.2214433 131.870266 44.2481945 131.969557 44.2550897 131.969557 44.3309375 138.311808 44.3309375"></polygon>
                    <polygon id="Path" fill="#E3201B" points="136.656948 4.75082684 130.314698 4.75082684 130.314698 25.9164844 123.260857 4.61843805 116.917228 4.61843805 116.917228 41.5783539 123.260857 41.5783539 123.260857 22.6012485 130.215406 41.6279997 130.314698 41.634895 130.314698 41.7107427 136.656948 41.7107427"></polygon>
                    <polygon id="Path" fill="#11CC16" points="112.038149 7.37102161 105.69452 7.37102161 105.69452 28.5366792 98.6406799 7.23863283 92.2984295 7.23863283 92.2984295 44.1985487 98.6406799 44.1985487 98.6406799 25.2214433 105.596607 44.2481945 105.69452 44.2550897 105.69452 44.3309375 112.038149 44.3309375"></polygon>
                    <polygon id="Path" fill="#E3201B" points="110.38329 4.75082684 104.03966 4.75082684 104.03966 25.9164844 96.98582 4.61843805 90.6435696 4.61843805 90.6435696 41.5783539 96.98582 41.5783539 96.98582 22.6012485 103.941748 41.6279997 104.03966 41.634895 104.03966 41.7107427 110.38329 41.7107427"></polygon>
                    <path d="M82.3706494,2.62019477 L74.4700726,2.62019477 L68.9924865,2.62019477 L68.78425,45.8051418 L73.7970963,45.8051418 L74.4714517,24.7263644 L82.3720284,24.7263644 L81.9059096,41.7686628 L87.3834957,41.7686628 L87.8496146,2.62157382 L82.3706494,2.62157382 L82.3706494,2.62019477 Z M82.3706494,19.0708808 L74.4700726,19.0708808 L74.4700726,8.27567834 L82.3706494,8.27567834 L82.3706494,19.0708808 Z" id="Shape" fill="#11CC16"></path>
                    <path d="M80.7157895,-2.3516973e-14 L72.8152128,-2.3516973e-14 L67.3376266,-2.3516973e-14 L67.1293901,43.184947 L72.1422364,43.184947 L72.8165918,22.1061696 L80.7171686,22.1061696 L80.2510497,39.148468 L85.7286359,39.148468 L86.1947547,0.00137904988 L80.7157895,0.00137904988 L80.7157895,-2.3516973e-14 Z M80.7157895,16.450686 L72.8152128,16.450686 L72.8152128,5.65548356 L80.7157895,5.65548356 L80.7157895,16.450686 Z" id="Shape" fill="#E3201B"></path>
                    <path d="M67.0135499,32.0629097 L59.5942616,24.9152942 L64.0058421,24.9152942 L64.0058421,19.2611897 L64.0058421,8.46598722 L64.0058421,2.81188271 L58.528256,2.81188271 L50.6276792,2.81188271 L45.1500931,2.81188271 L45.1500931,8.46598722 L45.1500931,19.2611897 L45.1500931,24.9152942 L45.1500931,36.4951761 L45.1500931,41.9575926 L50.6276792,41.9575926 L50.6276792,36.4965551 L50.6276792,24.9166733 L50.9738208,24.9166733 L62.9977567,36.6385972 L67.0135499,32.0629097 Z M50.6276792,8.46460817 L58.528256,8.46460817 L58.528256,19.2598106 L50.6276792,19.2598106 L50.6276792,8.46460817 Z" id="Shape" fill="#11CC16"></path>
                    <path d="M65.3586901,29.442715 L57.9394017,22.2950994 L62.3509823,22.2950994 L62.3509823,16.6409949 L62.3509823,5.84579245 L62.3509823,0.191687933 L56.8733961,0.191687933 L48.9728194,0.191687933 L43.4952332,0.191687933 L43.4952332,5.84579245 L43.4952332,16.6409949 L43.4952332,22.2950994 L43.4952332,33.8749813 L43.4952332,39.3373979 L48.9728194,39.3373979 L48.9728194,33.8763603 L48.9728194,22.2964785 L49.3189609,22.2964785 L61.3428968,34.0184025 L65.3586901,29.442715 Z M48.9728194,5.8444134 L56.8733961,5.8444134 L56.8733961,16.6396159 L48.9728194,16.6396159 L48.9728194,5.8444134 Z" id="Shape" fill="#E3201B"></path>
                    <polygon id="Path" fill="#11CC16" points="24.3154075 43.7048488 24.6712024 7.34344062 24.6712024 7.15037363 43.5283304 8.46047102 43.5283304 8.64112655 43.5283304 13.7380949 30.4218404 13.0899415 30.0646665 38.1155597 42.2072007 37.9335251 42.7657159 43.2718272"></polygon>
                    <polygon id="Path" fill="#E3201B" points="22.6605476 41.0846541 23.0163425 4.72324584 23.0163425 4.53017886 41.8734706 5.84027625 41.8734706 6.02093178 41.8734706 11.1179001 28.7669805 10.4697467 28.4098066 35.4953649 40.5523408 35.3133303 41.110856 40.6516324"></polygon>
                    <polygon id="Path" fill="#11CC16" points="1.65485986 6.10091667 1.65485986 6.29398366 1.65485986 28.2057072 15.2978003 28.088488 15.2978003 38.982982 1.65485986 39.6532003 1.65485986 45.3073048 1.65485986 45.4396936 20.5119879 44.1295962 20.5119879 44.0054817 20.5119879 22.7653554 7.40549786 22.616418 7.40549786 12.0404845 20.5119879 12.690017 20.5119879 7.5916696 20.5119879 7.41239311"></polygon>
                    <polygon id="Path" fill="#E3201B" points="-1.5677982e-14 3.4807219 -1.5677982e-14 3.67378888 -1.5677982e-14 25.5855124 13.6429405 25.4682932 13.6429405 36.3627873 -1.5677982e-14 37.0330055 -1.5677982e-14 42.68711 -1.5677982e-14 42.8194988 18.8571281 41.5094014 18.8571281 41.3852869 18.8571281 20.1451607 5.750638 19.9962233 5.750638 9.42028974 18.8571281 10.0698222 18.8571281 4.97147482 18.8571281 4.79219834"></polygon>
                </g>
            </g>
        </g>
    </g>
</svg>