<?xml version="1.0" encoding="UTF-8"?>
<svg width="200px" height="147px" viewBox="0 0 200 147" version="1.1" xmlns="http://www.w3.org/2000/svg" xmlns:xlink="http://www.w3.org/1999/xlink">
    <!-- Generator: Sketch 62 (91390) - https://sketch.com -->
    <title>Group 2</title>
    <desc>Created with Sketch.</desc>
    <g id="Website" stroke="none" stroke-width="1" fill="none" fill-rule="evenodd">
        <g id="Verify-Focus-Copy" transform="translate(-618.000000, -100.000000)">
            <g id="Group-2" transform="translate(620.000000, 100.000000)">
                <g id="Logo-Color-Rect-Copy" transform="translate(0.009092, 0.000000)">
                    <g id="House" transform="translate(86.944458, 45.081044)" fill-rule="nonzero">
                        <polygon id="Path" fill="#11CC16" points="109.912856 13.7166863 109.912856 6.73237637 100.202461 6.73237637 94.0711651 6.73237637 94.0711651 13.7166863 94.0711651 22.12223 94.0711651 29.1051707 94.0711651 40.8091271 94.0711651 47.793437 94.0711651 47.9303574 100.202461 47.9303574 100.202461 47.793437 109.912856 47.793437 109.912856 40.8091271 100.202461 40.8091271 100.202461 29.1051707 109.912856 29.1051707 109.912856 22.12223 100.202461 22.12223 100.202461 13.7166863"></polygon>
                        <polygon id="Path" fill="#E3201B" points="108.406732 11.5259598 108.406732 4.54164987 98.6963364 4.54164987 92.5650406 4.54164987 92.5650406 11.5259598 92.5650406 19.9315035 92.5650406 26.9144442 92.5650406 38.6184006 92.5650406 45.6027105 92.5650406 45.7396309 98.6963364 45.7396309 98.6963364 45.6027105 108.406732 45.6027105 108.406732 38.6184006 98.6963364 38.6184006 98.6963364 26.9144442 108.406732 26.9144442 108.406732 19.9315035 98.6963364 19.9315035 98.6963364 11.5259598"></polygon>
                        <polygon id="Path" fill="#11CC16" points="72.0872247 5.63564392 72.0872247 5.85060896 72.0872247 30.2758402 85.274029 30.1443966 85.274029 42.2892367 72.0872247 43.0354529 72.0872247 49.3392684 72.0872247 49.4871424 90.3140691 48.0248325 90.3140691 47.8865429 90.3140691 24.2116354 77.6448239 24.0459617 77.6448239 12.2557456 90.3140691 12.9800545 90.3140691 7.29785765 90.3140691 7.09658465"></polygon>
                        <polygon id="Path" fill="#E3201B" points="70.5811002 3.44491742 70.5811002 3.65988246 70.5811002 28.0851137 83.7679045 27.9536701 83.7679045 40.0985102 70.5811002 40.8447264 70.5811002 47.1485419 70.5811002 47.2964159 88.8079447 45.834106 88.8079447 45.6958164 88.8079447 22.0209089 76.1386995 21.8552352 76.1386995 10.0650191 88.8079447 10.789328 88.8079447 5.10713115 88.8079447 4.90585815"></polygon>
                        <polygon id="Path" fill="#11CC16" points="61.4868468 2.20715695 61.4868468 37.1013225 55.0173576 37.1013225 55.0173576 2.20715695 48.887431 2.20715695 48.887431 43.405138 48.8901694 43.405138 55.0173576 43.405138 61.4868468 43.405138 67.1170139 43.405138 67.6167734 43.405138 67.6167734 2.20715695"></polygon>
                        <polygon id="Path" fill="#E3201B" points="59.9807223 0.0164304487 59.9807223 34.910596 53.5112331 34.910596 53.5112331 0.0164304487 47.3813066 0.0164304487 47.3813066 41.2144115 47.384045 41.2144115 53.5112331 41.2144115 59.9807223 41.2144115 65.6108894 41.2144115 66.1106489 41.2144115 66.1106489 0.0164304487"></polygon>
                        <path d="M26.4009927,5.56855292 L26.4009927,5.78351796 L26.4009927,11.8709992 L26.4009927,43.1162359 L26.4009927,49.4186822 L31.6957048,49.4186822 L39.3317559,49.4186822 L44.626468,49.4186822 L44.626468,43.1162359 L44.626468,11.8709992 L44.626468,5.78351796 L44.626468,5.56855292 L26.4009927,5.56855292 Z M39.3331251,43.1162359 L31.697074,43.1162359 L31.697074,11.8709992 L39.3331251,11.8709992 L39.3331251,43.1162359 Z" id="Shape" fill="#11CC16"></path>
                        <path d="M24.8948683,3.37782642 L24.8948683,3.59279146 L24.8948683,9.68027272 L24.8948683,40.9255094 L24.8948683,47.2279557 L30.1895804,47.2279557 L37.8256314,47.2279557 L43.1203435,47.2279557 L43.1203435,40.9255094 L43.1203435,9.68027272 L43.1203435,3.59279146 L43.1203435,3.37782642 L24.8948683,3.37782642 Z M37.8270006,40.9255094 L30.1909496,40.9255094 L30.1909496,9.68027272 L37.8270006,9.68027272 L37.8270006,40.9255094 Z" id="Shape" fill="#E3201B"></path>
                        <polygon id="Path" fill="#11CC16" points="16.8822861 5.84513214 16.3838958 19.5604492 7.97835207 19.1277807 8.47674235 5.41109445 2.87943614 5.1235616 1.51297049 42.7355972 7.10890749 43.0244992 7.74695658 25.5041641 16.1525003 25.9368325 15.5144512 43.4571677 21.1117574 43.7460698 22.4795923 6.13266499"></polygon>
                        <polygon id="Path" fill="#E3201B" points="15.3761616 3.65440564 14.8777713 17.3697227 6.4722276 16.9370542 6.97061788 3.22036795 1.37331167 2.9328351 0.00684602031 40.5448707 5.60278302 40.8337727 6.24083211 23.3134376 14.6463759 23.746106 14.0083268 41.2664412 19.605633 41.5553433 20.9734678 3.94193849"></polygon>
                    </g>
                    <g id="Head" transform="translate(0.000000, 45.491805)">
                        <g id="HeadNeaonGlow" transform="translate(0.000000, 0.136920)">
                            <path d="M53.4537266,55.9046018 C53.4537266,55.9046018 85.556085,53.7631667 68.7271979,28.4958749" id="Path" stroke="#11CC16" stroke-width="2.59931068" stroke-linecap="round" stroke-linejoin="round"></path>
                            <path d="M68.6669529,28.4041383 C68.6669529,28.4041383 68.6888602,28.43563 68.7271979,28.4958749 C68.7066598,28.4657524 68.687491,28.43563 68.6669529,28.4041383 M68.6642145,25.8081274 C68.164455,25.8081274 67.6605879,25.9518938 67.2155966,26.2517495 C66.0284967,27.0513647 65.7108413,28.6588102 66.5049797,29.8486486 L66.5241486,29.8774018 L66.5624863,29.9362776 C67.0622458,30.6879706 67.8878758,31.0959935 68.7285671,31.0959935 C69.2187421,31.0959935 69.714394,30.9577038 70.1539085,30.6688018 C71.3492237,29.8828787 71.6846787,28.2795407 70.9056016,27.0801179 C70.8494642,26.9938581 70.8179725,26.9473051 70.8179725,26.9473051 C70.3154746,26.2079349 69.4966906,25.8081274 68.6642145,25.8081274 L68.6642145,25.8081274 Z" id="Shape" fill="#11CC16" fill-rule="nonzero"></path>
                            <path d="M54.2656646,10.8057585 C54.2656646,10.8057585 24.8113468,-4.66624744 14.3383049,20.4326322 C13.3826005,19.9753181 12.6309075,19.9123347 12.6309075,19.9123347 C12.6309075,19.9123347 5.22899031,18.4089486 4.07338208,26.966474 C3.34770393,32.3337539 4.89764293,34.6983693 6.15320305,35.715688 L5.96288369,35.6102592 C-5.79036398,48.0166172 2.56725762,52.3255024 10.5332868,55.1994618 C11.7162792,55.6252842 12.7979504,56.0702755 13.7919925,56.5193745 C13.969989,57.9721 14.0644641,59.7548037 13.9836811,61.9140385 C13.6906714,69.8129767 12.9841621,72.4459561 14.1548316,72.592461 C15.3255011,72.7389658 13.6906714,64.2074553 14.5683312,61.2814662 C14.8572333,60.3175465 14.9585544,58.7607615 15.0105841,57.0958094 C19.8794738,59.5015009 22.249566,61.9386842 23.0491812,62.7081768 C25.2727686,64.842766 26.9295055,69.2146345 34.1465801,67.4552073 C38.7922895,66.3228756 41.5786197,63.8884307 43.14362,61.9345765 C43.3558466,61.7209807 43.4955054,61.5224461 43.6214722,61.3047427 C44.3416735,60.2956393 44.7086202,59.4973933 44.8318486,59.207122 C45.0728285,59.2427214 45.3630998,59.2317677 45.7149852,59.1550923 C47.0444824,58.8661902 47.8851737,58.3582155 48.6437127,57.7763038 C48.7902175,57.6695059 48.9367224,57.5531235 49.0845964,57.4244184 C49.8664119,56.7850001 50.6441198,56.093552 51.8914647,55.5143787 M11.2425346,20.491508 C12.3584359,20.491508 13.2826486,20.7105806 14.0480337,21.0857426 C13.5482742,22.235874 13.0813756,23.4695268 12.6528147,24.7921779 C10.52781,24.6141814 8.25356209,25.1659707 8.6615849,28.5054594 C8.6615849,28.5054594 10.1348485,27.5963079 11.86963,26.7884775 C11.5259598,27.5579702 11.4191619,28.1836964 11.4451768,28.6861943 C11.1795512,28.8682984 10.9070796,29.0832635 10.6250235,29.3434123 C10.6250235,29.3434123 10.9618477,29.1982766 11.4862529,29.0339721 C11.6067428,29.6542216 11.9353518,30.0430755 12.1872854,30.2594098 C12.2256231,30.3333468 12.2666992,30.4031762 12.3105137,30.468898 C11.9819047,30.5811727 11.6423421,30.7276776 11.2918259,30.9152585 C11.2918259,30.9152585 11.7313404,30.8509059 12.4898795,30.8495367 C12.3132521,30.9768727 12.1640089,31.1274851 12.0654262,31.2972664 C11.7778933,31.7983951 11.8970141,32.4035833 12.2927141,32.8526823 C11.9599975,32.7321923 11.5985276,32.6240252 11.2439038,32.5596726 C10.6017471,32.294047 9.70491839,32.2570785 8.55478698,32.9991871 C7.9550756,33.3853026 7.31018049,34.2150403 7.39233273,35.5376914 C3.03963302,33.6071137 3.30525861,20.491508 11.2425346,20.491508 Z M44.432041,59.7862954 C44.5374697,59.609668 44.6606981,59.4166103 44.8030953,59.2043836 C44.8044645,59.2043836 44.8058337,59.2043836 44.8072029,59.2043836 C44.6880822,59.401549 44.5634846,59.5946068 44.432041,59.7862954 Z" id="Shape" stroke="#11CC16" stroke-width="2.59931068" stroke-linecap="round" stroke-linejoin="round"></path>
                            <path d="M68.9585934,26.4051003 C68.9585934,26.4051003 80.8076853,29.1845846 79.490511,17.1889878 C78.1733367,5.19339101 66.6172544,6.80357498 63.6926346,10.1677094" id="Path" stroke="#11CC16" stroke-width="2.59931068" stroke-linecap="round" stroke-linejoin="round"></path>
                            <path d="M56.3865617,8.65336967 C53.932948,-0.0602449787 59.3440425,-0.0177996528 60.3243926,0.0588757747 C52.993674,-0.713355316 55.5472396,6.7419608 56.3317935,8.68623057 C54.5696279,9.78022461 54.5093829,10.8865415 54.5093829,10.8865415" id="Path" stroke="#11CC16" stroke-width="2.59931068" stroke-linecap="round" stroke-linejoin="round"></path>
                            <path d="M69.7390397,7.59497493 C69.7390397,7.59497493 69.3488165,0.30670171 60.4736358,0.0739370193" id="Path" stroke="#11CC16" stroke-width="2.59931068" stroke-linecap="round" stroke-linejoin="round"></path>
                        </g>
                        <polygon id="Path-3" fill="#FEF6EE" points="48.9486337 55.0443602 11.518265 53.1793394 3.96569201 45.2658863 12.9088559 32.1234975 20.8979206 14.6901904 24.411135 8.7716895 31.6751668 6.22575583 41.0235345 7.17242159 51.8215942 9.27772672 54.5093829 11.0234619 56.805314 7.86760018 56.1482806 2.00862593 60.1277939 0 65.1857516 1.14393755 68.816548 4.70643247 69.8184535 7.86760018 73.6067635 8.7716895 78.4014333 12.0104585 79.5927181 18.3434381 78.4014333 24.341714 75.0789534 26.7663126 68.6286152 27.2704373 71.3256246 33.3819591 73.6067635 42.2885524 70.9258536 49.0327482 65.1063377 53.1793394 58.466554 55.0443602"></polygon>
                        <g transform="translate(0.136920, 0.000000)" fill-rule="nonzero">
                            <path d="M53.664584,44.9181085 C48.202829,46.0230561 44.6921898,49.403621 44.6921898,49.403621 L43.7816691,48.6231746 C43.7816691,48.6231746 47.3580301,45.82726 46.4475094,41.3417474 C45.5369887,36.8562349 46.4475094,32.7595764 47.2279557,31.3301273 C48.008402,29.8993091 50.2840192,22.3577331 47.5524571,19.3673915 C44.8222642,16.3770498 43.5215203,14.1014326 32.4035833,14.6217302 C30.5181893,15.0119533 30.5181893,15.0119533 30.5181893,15.0119533 C30.5181893,15.0119533 28.308294,15.8567522 26.4872526,15.0119533 C24.6675804,14.1671544 24.6675804,13.7112095 23.9514867,10.2662921 C23.9514867,10.2662921 15.2392412,15.0119533 12.5090483,25.5452402 C12.5090483,25.5452402 11.5985276,27.8208573 11.5985276,28.1453587 C11.5985276,28.4698601 11.7929546,30.4853284 12.6391227,31.005626 L13.613996,33.6057445 C13.613996,33.6057445 11.8586764,32.6308712 10.5579325,32.6308712 C9.25718866,32.6308712 7.1116459,33.8015407 7.63194344,35.7512873 L5.03182493,37.5066069 C5.03182493,37.5066069 -0.754431438,42.9026401 1.06660996,47.9084501 C1.06660996,47.9084501 4.9893796,54.060284 12.1845469,55.7745275 C12.1845469,55.7745275 20.9200689,59.5124546 23.5325102,62.9080806 C26.1435824,66.3037067 28.6259493,70.4825175 36.8521273,65.9121143 C45.0796745,61.3417112 42.6041536,62.4548741 44.820895,59.2208141 L44.6880822,59.0126951 L44.820895,59.0263871 C44.820895,59.0263871 47.941311,59.6110372 50.4770769,55.9059711 C50.4770769,55.9059711 58.9291736,53.8261501 58.7990992,49.2749158 C58.8018376,49.2735466 59.126339,43.8131608 53.664584,44.9181085 Z M26.4502841,30.2799478 C28.0111767,28.784777 31.5861685,30.2155952 31.5861685,30.2155952 C35.6814579,31.3862647 36.3318298,36.7822979 36.3318298,36.7822979 C34.8366589,37.1067993 31.8203024,36.2072322 31.8203024,36.2072322 C31.8203024,36.2072322 29.2845365,35.6869347 28.4397376,35.2967115 C27.5949387,34.9064884 25.7095447,33.0210944 25.7095447,33.0210944 C25.7095447,31.2644056 26.4502841,30.2799478 26.4502841,30.2799478 Z M17.5175968,31.9147775 C17.3231698,32.629502 15.566481,33.2155213 15.566481,33.2155213 L14.4615333,30.8098298 C15.6322028,30.2895323 17.5175968,31.9147775 17.5175968,31.9147775 Z M10.2361696,49.8595659 C9.78159382,48.8189708 10.7564671,46.6734281 10.7564671,46.6734281 C10.7564671,46.6734281 9.9116682,46.1531305 9.0011475,45.3726842 C8.0906268,44.5922379 6.79125215,42.1221938 6.79125215,42.1221938 C8.09199601,41.2773949 11.9271366,41.862045 12.9020099,43.0327145 C13.8768832,44.2033839 22.524776,45.6985548 22.524776,45.6985548 C21.9401259,46.9992986 18.4938393,48.6888964 17.5833186,48.6245439 C16.6727979,48.5601913 15.9580733,49.5994171 14.1370319,50.9645136 C12.3159905,52.32961 10.6907453,50.8987918 10.2361696,49.8595659 Z" id="Shape" fill="#F9C18A"></path>
                            <path d="M28.7560237,26.9253979 C28.7560237,26.9253979 19.8863198,35.2624814 30.1745191,41.8264457 C30.1758883,41.8264457 21.8388048,35.6184745 28.7560237,26.9253979 Z" id="Path" fill="#E3201B"></path>
                            <path d="M26.1339979,30.3470388 C26.1339979,30.3470388 33.3907795,26.2996716 36.1812173,35.5103073 C38.9716552,44.7209431 35.7622409,35.6499662 35.7622409,35.6499662 C35.7622409,35.6499662 34.8763659,29.5419468 26.1339979,30.3470388 Z" id="Path" fill="#E3201B"></path>
                            <path d="M25.3056295,32.9608494 C25.3056295,32.9608494 31.7244581,36.0306049 35.0735313,36.8685578 C35.0749005,36.8685578 27.8181189,36.728899 25.3056295,32.9608494 Z" id="Path" fill="#E3201B"></path>
                            <path d="M11.2329501,31.0494405 C11.2329501,31.0494405 14.023388,30.6304641 17.7914376,31.8873934 C17.7914376,31.8873934 15.1406585,28.9559275 11.2329501,31.0494405 Z" id="Path" fill="#E3201B"></path>
                            <path d="M6.72005354,42.1536855 C6.72005354,42.1536855 9.08740736,40.6927447 14.0932174,42.7725657 C19.0990275,44.8523867 22.055139,45.6492634 22.5453141,45.6985548 C22.5453141,45.6985548 19.3865603,45.9135198 13.4428455,43.6187338 C7.49365383,41.318471 6.72005354,42.1536855 6.72005354,42.1536855 Z" id="Path" fill="#E3201B"></path>
                            <path d="M14.2095998,43.9459736 C14.2095998,43.9459736 12.0750106,44.2403524 10.7277138,46.5830606 C8.30148423,50.8029475 11.4657148,55.3391206 20.2217748,45.9504883 C20.2217748,45.9504883 14.7764502,51.1808478 12.1393632,51.0795267 C9.39684748,50.974098 9.78022461,46.3722032 14.2095998,43.9459736 Z" id="Path" fill="#E3201B"></path>
                            <path d="M6.72005354,42.1536855 C6.72005354,42.1536855 9.23801981,46.0572862 10.9248792,46.2681437 L10.5990086,46.7720108 C9.95411353,46.8240405 8.52329529,45.975134 6.72005354,42.1536855 Z" id="Path" fill="#E3201B"></path>
                            <path d="M17.4737822,48.591683 C17.4737822,48.591683 21.5868712,47.1937256 22.5398373,46.0655015 C22.5398373,46.0655015 20.4956156,48.6820504 16.8165643,49.1722255 L17.4737822,48.591683 Z" id="Path" fill="#E3201B"></path>
                            <path d="M19.9534108,41.2185191 C19.9534108,41.2185191 20.9337609,44.2937514 21.8305896,45.357623 C22.7287874,46.4214945 23.7693825,49.3132535 23.7693825,49.3132535 C23.7693825,49.3132535 23.4339275,46.398218 22.2098591,45.0344908 C21.2281398,43.9391276 19.9534108,41.2185191 19.9534108,41.2185191 Z" id="Path" fill="#E3201B"></path>
                            <path d="M21.7854058,40.4545032 C21.7854058,40.4545032 27.4525414,48.66562 28.4931365,48.7820023 C29.5337316,48.8983847 24.5607825,44.6168836 21.7854058,40.4545032 Z" id="Path" fill="#E3201B"></path>
                            <path d="M19.8575665,54.2793566 C19.8575665,54.2793566 25.0331579,58.12682 27.7565047,60.0984739 C30.5852803,62.1468032 35.9333914,60.9870873 38.4773725,58.7895148 C38.4773725,58.7895148 32.6322404,64.9742096 27.0280882,60.7556918 C27.0280882,60.7556918 24.5991202,58.5581193 23.3271296,57.4025111 C22.055139,56.2455337 19.8575665,54.2793566 19.8575665,54.2793566 Z" id="Path" fill="#E3201B"></path>
                            <path d="M8.60270912,28.6382722 C8.60270912,28.6382722 13.5140441,25.604116 15.962181,25.698591 C15.962181,25.698591 7.86196972,22.5754366 8.60270912,28.6382722 Z" id="Path" fill="#E3201B"></path>
                            <path d="M31.1890993,20.3723872 C31.1890993,20.3723872 34.3122538,17.2492328 39.7466247,18.7526188 C45.1823648,20.2560049 45.297378,26.8487225 45.297378,26.8487225 C45.297378,26.8487225 41.3663931,20.2573741 31.1890993,20.3723872 Z" id="Path" fill="#E3201B"></path>
                            <path d="M35.8183783,23.2860535 C24.0226853,19.2386863 21.1309263,31.2657748 21.1309263,31.2657748 C21.1309263,31.2657748 18.8183406,38.2049009 25.7574668,42.7150591 C32.696593,47.2252173 37.4381467,43.5242587 39.4043237,41.674464 C41.3691315,39.8233001 47.6140713,27.3334207 35.8183783,23.2860535 Z M39.0209466,41.271918 C37.1533522,43.0299761 32.6500401,46.5447229 26.0586917,42.2604834 C19.4673434,37.9762439 21.6649159,31.3848955 21.6649159,31.3848955 C21.6649159,31.3848955 24.4115392,19.9602568 35.6171053,23.8049818 C46.8213021,27.6497068 40.8885409,39.51386 39.0209466,41.271918 Z" id="Shape" fill="#E3201B"></path>
                            <path d="M17.3135854,32.0749744 C17.3135854,32.0749744 19.2797624,20.62569 11.1836588,20.62569 C3.08755516,20.62569 2.97254202,34.2725469 7.59908254,35.7759329 L7.4840694,36.5851325 C7.4840694,36.5851325 2.85752888,35.6595506 4.01450631,27.1020252 C5.17148374,18.5444998 12.5720317,20.0478859 12.5720317,20.0478859 C12.5720317,20.0478859 18.2391673,20.5106768 18.2391673,28.375385 L18.0077718,31.8449481 L17.3135854,32.0749744 Z" id="Path" fill="#E3201B"></path>
                            <path d="M13.2662182,39.3605092 C13.2662182,39.3605092 15.5788038,38.7827051 16.7357812,40.2860911 C17.8913895,41.7894772 14.1918001,40.9802776 13.2662182,39.3605092 Z" id="Path" fill="#E3201B"></path>
                            <path d="M17.6613632,37.74211 C17.6613632,37.74211 19.2811316,38.8990874 17.8927587,41.3266862 C17.8913895,41.3266862 20.551753,39.5919047 17.6613632,37.74211 Z" id="Path" fill="#E3201B"></path>
                            <path d="M24.7237177,13.1909119 C24.7237177,13.1909119 24.9181447,15.9211048 30.7701229,14.6532219 C36.622101,13.3853389 45.2029029,14.2629987 47.6414553,18.8470939 C50.0800078,23.4311891 49.5912019,25.5767319 46.9582225,33.8658933 C45.8861357,36.9863093 46.861009,41.667618 46.861009,41.667618 C46.861009,41.667618 47.4456592,46.4461402 43.6433795,48.7861099 C43.6433795,48.7861099 45.9833492,46.7377807 45.9833492,43.4229376 C45.9833492,40.1067254 44.7154663,37.473746 46.666582,31.5259235 C48.6163286,25.5767319 50.3730174,22.2618888 45.0084759,16.9945608 C43.9363891,16.311328 38.6690611,13.6783486 30.4771132,15.2392412 C28.4287839,15.5308817 25.2111544,15.6294644 24.7237177,13.1909119 Z" id="Path" fill="#E3201B"></path>
                            <path d="M29.4228261,35.7951018 C30.3840073,36.0963267 31.5341388,36.2387239 32.307739,35.5938288 C34.5984174,33.6851583 33.1552764,29.3475199 29.7007745,29.8240029 C26.4598685,30.2717326 26.2229962,34.7914752 29.4228261,35.7951018 Z" id="Path" fill="#E3201B"></path>
                            <path d="M13.9467126,30.6592174 C13.1881735,30.4784824 12.3310518,30.8659672 12.0065504,31.4314484 C11.5752511,32.1804031 12.0544726,33.1689684 13.0129154,33.5071618 C13.9713582,33.8453552 15.2365028,33.4715625 15.6705405,32.7239771 C16.0662405,32.0407443 15.7102474,31.1370696 14.8695561,30.7755997 C14.0288648,30.4141298 12.8280729,30.6879706 12.406358,31.361619" id="Path" fill="#E3201B"></path>
                            <path d="M12.191393,51.2725845 C12.191393,51.2725845 14.2164458,54.1506514 13.9248053,62.0495897 C13.6317956,69.9485279 12.9252863,72.5815073 14.0959558,72.7280122 C15.2666253,72.874517 13.6317956,64.3430065 14.5094554,61.4170174 C15.3871152,58.4910283 14.5313627,50.101915 15.848537,49.8089054 C15.848537,49.8089054 13.6550721,51.2725845 12.191393,51.2725845 Z" id="Path" fill="#E3201B"></path>
                            <path d="M46.7624263,14.6901904 C46.7624263,14.6901904 65.2370967,16.9616999 65.6273199,27.1033944 C65.6273199,27.1033944 66.7322676,36.7905131 58.8552366,41.996227 C58.8552366,41.996227 87.1471001,22.5535293 46.7624263,14.6901904 Z" id="Path" fill="#E3201B"></path>
                            <path d="M68.6080771,28.5383203 C68.6080771,28.5383203 83.8213035,50.9686212 53.3948508,56.0387845 C53.3948508,56.0401531 85.5766231,53.8946103 68.6080771,28.5383203 Z" id="Path" fill="#E3201B"></path>
                            <path d="M44.6168836,49.4090978 C44.6168836,49.4090978 56.1250437,41.2171499 58.2692173,47.263555 C60.41476,53.3099602 51.832589,54.6750566 50.0772694,56.0401531 C48.3219498,57.4052495 43.8364372,61.1116849 44.0308642,56.0401531 C44.0308642,56.0401531 42.6657678,59.9410154 45.6561094,59.2906435 C48.6464511,58.6402716 49.1667487,56.884952 51.832589,55.6499299 C54.4984293,54.4149078 59.4398867,52.919737 58.8538674,48.1727065 C58.2692173,43.4270452 53.262038,44.7921417 53.262038,44.7921417 C53.262038,44.7921417 47.8030214,46.4831087 44.6168836,49.4090978 Z" id="Path" fill="#E3201B"></path>
                            <path d="M48.4533933,49.6678773 C48.4533933,49.6678773 49.4939884,52.5938664 46.5679994,53.1785166 C46.5679994,53.1798858 49.8842116,53.3085909 48.4533933,49.6678773 Z" id="Path" fill="#E3201B"></path>
                            <path d="M50.8056859,46.7637955 C50.8056859,46.7637955 56.1250437,45.6561094 56.5686658,49.8664119 C56.5686658,49.8664119 58.119974,44.9906763 50.8056859,46.7637955 Z" id="Path" fill="#E3201B"></path>
                            <path d="M56.4659755,9.27772672 C56.4659755,9.27772672 51.7846668,-0.816045621 60.4161292,0.208119017 C60.4161292,0.209488221 53.3948508,-0.814676417 56.4659755,9.27772672 Z" id="Path" fill="#E3201B"></path>
                            <path d="M63.6337588,10.3018914 C63.6337588,10.3018914 75.920996,3.5722534 78.4088398,17.4696746 C79.2864996,24.1993126 75.7758604,26.832292 68.9010868,26.5392823 C68.9010868,26.5392823 80.7501788,29.3187666 79.4330045,17.3231698 C78.1158301,5.32757301 66.5597479,6.93775698 63.6337588,10.3018914 Z" id="Path" fill="#E3201B"></path>
                            <path d="M60.9460112,19.2729164 C60.9460112,19.2729164 58.3253546,12.7459206 54.1314826,12.1599013 C54.1314826,12.1599013 55.1912465,7.27731959 59.5795456,8.35077557 C63.9678446,9.42286235 69.9170362,17.6148103 68.4533571,27.2704373 C68.4547263,27.2690681 68.0645031,22.3933324 60.9460112,19.2729164 Z" id="Path" fill="#E3201B"></path>
                            <path d="M60.4161292,0.209488221 C60.4161292,0.209488221 68.217854,1.29389784 69.6815331,7.73052613 C69.6801639,7.72915693 69.2899408,0.440883708 60.4161292,0.209488221 Z" id="Path" fill="#E3201B"></path>
                            <path d="M16.5427235,44.3635808 C16.5427235,44.3635808 14.6819752,44.3635808 13.2443109,47.5771027 C13.2443109,47.5771027 15.4432526,44.7017742 16.9658075,44.7017742 L16.5427235,44.3635808 Z" id="Path" fill="#E3201B"></path>
                            <path d="M12.0558418,32.3050006 C12.0558418,32.3050006 14.9818308,34.0603202 17.5655189,31.9147775 C17.5655189,31.9147775 15.9567041,34.93798 12.0558418,32.3050006 Z" id="Path" fill="#E3201B"></path>
                            <path d="M19.3386382,30.0156914 C19.3386382,30.0156914 21.5457951,30.2375025 21.6101477,30.7687537 C21.6745003,31.3000049 21.5827636,31.5163391 21.5827636,31.5163391 C21.5827636,31.5163391 18.9251385,32.4378134 17.8530518,30.7865533 L17.8037604,30.3265008 C17.8037604,30.3265008 18.7663109,29.9116319 19.3386382,30.0156914 Z" id="Path" fill="#E3201B"></path>
                            <path d="M11.4383307,29.1161244 C11.855938,26.4954678 17.7147622,-3.34770393 54.1725587,11.7409248 C55.0105116,12.2242539 20.6736121,-10.6441924 11.4383307,29.1161244 Z" id="Path" fill="#E3201B"></path>
                            <path d="M8.56710982,33.7577261 C8.90119561,33.3469649 10.3963664,31.7751187 12.3817123,33.702958 C12.3817123,33.702958 11.0686456,31.4766322 8.49728041,33.1347383 C7.62098981,33.7002196 6.64611652,35.2104517 7.9893057,37.8270006 C9.02990079,40.0245731 9.83910039,40.4873641 9.83910039,40.4873641 L10.7646823,39.5617822 C10.7633131,39.5617822 6.59956358,36.5235184 8.56710982,33.7577261 Z" id="Path" fill="#E3201B"></path>
                            <path d="M12.7719355,25.2837222 C12.7719355,25.2837222 10.8221889,29.0545102 12.4474341,30.6154028 C12.4460649,30.6140336 9.84594641,29.3790116 12.7719355,25.2837222 Z" id="Path" fill="#E3201B"></path>
                            <path d="M10.5661477,29.4775942 C10.5661477,29.4775942 14.5080862,27.7688276 16.4797401,29.4775942 C16.4797401,29.4775942 14.1151247,26.1928737 10.5661477,29.4775942 Z" id="Path" fill="#E3201B"></path>
                            <polygon id="Path" fill="#E3201B" points="42.190654 35.3774946 52.6732803 45.1782572 51.2109703 45.6164025 41.9236592 36.40029"></polygon>
                            <path d="M27.7345975,29.2557832 C27.7345975,29.2557832 32.1228965,25.8423575 35.3418952,28.7683465 C35.340526,28.7683465 31.9271003,24.3800475 27.7345975,29.2557832 Z" id="Path" fill="#E3201B"></path>
                            <path d="M7.078785,36.3989208 C7.078785,36.3989208 -10.6811609,48.6738352 13.7385936,55.9867541 C13.7385936,55.9867541 21.2842771,59.2687362 25.2303232,64.3443757 C29.5748077,69.9334667 40.9077098,65.849131 44.8222642,59.2208141 C44.8222642,59.2208141 42.4987249,65.54106 34.0890735,67.5907585 C26.8706297,69.3501857 25.2138928,64.976948 22.9916746,62.843728 C21.9757252,61.8688547 18.4404403,58.2076031 10.4744111,55.335013 C2.50838184,52.4624228 -5.84923975,48.1521685 5.90400792,35.7471796 L7.078785,36.3989208 Z" id="Path" fill="#E3201B"></path>
                        </g>
                    </g>
                    <g id="Scranny's" transform="translate(7.102061, 0.000000)" fill-rule="nonzero">
                        <polygon id="Path" fill="#11CC16" points="172.080197 5.20571384 172.04186 5.3919256 167.627546 26.6652491 180.896502 29.4803327 178.701668 40.057434 165.321806 37.7790785 164.182628 43.2682176 164.156613 43.3982919 182.727128 46.1722994 182.751774 46.0518094 187.030536 25.4315962 174.335276 22.4741155 176.465758 12.205085 189.059697 15.6486332 190.0866 10.7003297 190.122199 10.5250716"></polygon>
                        <polygon id="Path" fill="#E3201B" points="170.437152 2.60422613 170.398815 2.79043788 165.984501 24.0637614 179.253457 26.8788449 177.058623 37.4559463 163.678761 35.1775908 162.539583 40.6667298 162.513569 40.7968042 181.084083 43.5708117 181.108729 43.4503217 185.387492 22.8301085 172.692232 19.8726278 174.822713 9.60359729 187.416652 13.0471455 188.443555 8.09884203 188.479154 7.92358391"></polygon>
                        <polygon id="Path" fill="#11CC16" points="161.827597 15.4090225 165.065765 17.4039528 168.580512 11.3246868 165.340975 9.32975648"></polygon>
                        <polygon id="Path" fill="#E3201B" points="160.184552 12.8075348 163.42272 14.8024651 166.937467 8.72319908 163.69793 6.72826876"></polygon>
                        <polygon id="Path" fill="#11CC16" points="157.895243 4.82507511 151.257342 17.9146659 144.003299 5.49050829 139.357589 8.38089806 148.313553 23.718722 148.638055 24.275988 148.638055 26.624173 148.638055 40.2559686 154.076533 40.2559686 154.076533 26.9473051 154.076533 24.4594614 154.543432 23.5407254 162.714842 7.42930124"></polygon>
                        <polygon id="Path" fill="#E3201B" points="156.252198 2.2235874 149.614297 15.3131782 142.360254 2.88902057 137.714545 5.77941035 146.670508 21.1172342 146.99501 21.6745003 146.99501 24.0226853 146.99501 37.6544809 152.433488 37.6544809 152.433488 24.3458174 152.433488 21.8579736 152.900387 20.9392377 161.071797 4.82781352"></polygon>
                        <polygon id="Path" fill="#11CC16" points="137.324321 7.31839571 131.027352 7.31839571 131.027352 28.3329397 124.023873 7.18695212 117.725534 7.18695212 117.725534 43.8829902 124.023873 43.8829902 124.023873 25.0413731 130.928769 43.9322815 131.027352 43.9391276 131.027352 44.0144338 137.324321 44.0144338"></polygon>
                        <polygon id="Path" fill="#E3201B" points="135.681277 4.71690799 129.384307 4.71690799 129.384307 25.7314519 122.380828 4.5854644 116.08249 4.5854644 116.08249 41.2815025 122.380828 41.2815025 122.380828 22.4398854 129.285724 41.3307938 129.384307 41.3376398 129.384307 41.4129461 135.681277 41.4129461"></polygon>
                        <polygon id="Path" fill="#11CC16" points="111.238246 7.31839571 104.939907 7.31839571 104.939907 28.3329397 97.9364281 7.18695212 91.6394587 7.18695212 91.6394587 43.8829902 97.9364281 43.8829902 97.9364281 25.0413731 104.842693 43.9322815 104.939907 43.9391276 104.939907 44.0144338 111.238246 44.0144338"></polygon>
                        <polygon id="Path" fill="#E3201B" points="109.595201 4.71690799 103.296862 4.71690799 103.296862 25.7314519 96.2933833 4.5854644 89.9964138 4.5854644 89.9964138 41.2815025 96.2933833 41.2815025 96.2933833 22.4398854 103.199649 41.3307938 103.296862 41.3376398 103.296862 41.4129461 109.595201 41.4129461"></polygon>
                        <path d="M81.7825586,2.60148772 L73.9383885,2.60148772 L68.49991,2.60148772 L68.2931602,45.4781129 L73.270217,45.4781129 L73.9397578,24.5498288 L81.7839278,24.5498288 L81.3211369,41.4704526 L86.7596154,41.4704526 L87.2224064,2.60285692 L81.7825586,2.60285692 L81.7825586,2.60148772 Z M81.7825586,18.934723 L73.9383885,18.934723 L73.9383885,8.21659358 L81.7825586,8.21659358 L81.7825586,18.934723 Z" id="Shape" fill="#11CC16"></path>
                        <path d="M80.1395137,-2.3349072e-14 L72.2953437,-2.3349072e-14 L66.8568651,-2.3349072e-14 L66.6501153,42.8766252 L71.6271721,42.8766252 L72.2967129,21.9483411 L80.140883,21.9483411 L79.678092,38.8689649 L85.1165705,38.8689649 L85.5793615,0.00136920406 L80.1395137,0.00136920406 L80.1395137,-2.3349072e-14 Z M80.1395137,16.3332353 L72.2953437,16.3332353 L72.2953437,5.61510586 L80.1395137,5.61510586 L80.1395137,16.3332353 Z" id="Shape" fill="#E3201B"></path>
                        <path d="M66.5351022,31.8339944 L59.1687843,24.7374098 L63.5488681,24.7374098 L63.5488681,19.1236731 L63.5488681,8.40554374 L63.5488681,2.79180708 L58.1103896,2.79180708 L50.2662195,2.79180708 L44.827741,2.79180708 L44.827741,8.40554374 L44.827741,19.1236731 L44.827741,24.7374098 L44.827741,36.2346163 L44.827741,41.6580336 L50.2662195,41.6580336 L50.2662195,36.2359855 L50.2662195,24.738779 L50.6098897,24.738779 L62.54798,36.3770135 L66.5351022,31.8339944 Z M50.2662195,8.40417453 L58.1103896,8.40417453 L58.1103896,19.1223039 L50.2662195,19.1223039 L50.2662195,8.40417453 Z" id="Shape" fill="#11CC16"></path>
                        <path d="M64.8920573,29.2325067 L57.5257395,22.1359221 L61.9058233,22.1359221 L61.9058233,16.5221854 L61.9058233,5.80405602 L61.9058233,0.190319365 L56.4673447,0.190319365 L48.6231746,0.190319365 L43.1846961,0.190319365 L43.1846961,5.80405602 L43.1846961,16.5221854 L43.1846961,22.1359221 L43.1846961,33.6331286 L43.1846961,39.0565459 L48.6231746,39.0565459 L48.6231746,33.6344978 L48.6231746,22.1372913 L48.9668449,22.1372913 L60.9049351,33.7755258 L64.8920573,29.2325067 Z M48.6231746,5.80268681 L56.4673447,5.80268681 L56.4673447,16.5208162 L48.6231746,16.5208162 L48.6231746,5.80268681 Z" id="Shape" fill="#E3201B"></path>
                        <polygon id="Path" fill="#11CC16" points="24.141806 43.3928151 24.4950607 7.29101163 24.4950607 7.09932306 43.217557 8.40006692 43.217557 8.57943265 43.217557 13.6400109 30.2046416 12.996485 29.8500178 37.8434311 41.9058595 37.6626961 42.4603872 42.9628851"></polygon>
                        <polygon id="Path" fill="#E3201B" points="22.4987611 40.7913274 22.8520158 4.68952391 22.8520158 4.49783534 41.5745121 5.7985792 41.5745121 5.97794493 41.5745121 11.0385231 28.5615967 10.3949972 28.2069729 35.2419434 40.2628146 35.0612084 40.8173423 40.3613973"></polygon>
                        <polygon id="Path" fill="#11CC16" points="1.64304487 6.05735877 1.64304487 6.24904734 1.64304487 28.0043307 15.1885807 27.8879483 15.1885807 38.7046604 1.64304487 39.3700936 1.64304487 44.9838303 1.64304487 45.1152738 20.3655412 43.81453 20.3655412 43.6913016 20.3655412 22.6028207 7.35262581 22.4549466 7.35262581 11.9545207 20.3655412 12.5994158 20.3655412 7.53746836 20.3655412 7.35947183"></polygon>
                        <polygon id="Path" fill="#E3201B" points="-1.5566048e-14 3.45587105 -1.5566048e-14 3.64755962 -1.5566048e-14 25.402843 13.5455358 25.2864606 13.5455358 36.1031727 -1.5566048e-14 36.7686059 -1.5566048e-14 42.3823425 -1.5566048e-14 42.5137861 18.7224963 41.2130423 18.7224963 41.0898139 18.7224963 20.0013329 5.70958094 19.8534589 5.70958094 9.35303295 18.7224963 9.99792806 18.7224963 4.93598064 18.7224963 4.75798412"></polygon>
                    </g>
                </g>
                <text id="UK-MUNCHIES-IN-BARCE" font-family="Montserrat-SemiBold, Montserrat" font-size="9.86511527" font-weight="500" letter-spacing="0.822092991" fill="#F9C18A">
                    <tspan x="11.0890936" y="145.57487">UK MUNCHIES IN BARCELONA</tspan>
                </text>
            </g>
        </g>
    </g>
</svg>