<?xml version="1.0" encoding="UTF-8"?>
<svg width="54px" height="52px" viewBox="0 0 54 52" version="1.1" xmlns="http://www.w3.org/2000/svg" xmlns:xlink="http://www.w3.org/1999/xlink">
    <!-- Generator: Sketch 62 (91390) - https://sketch.com -->
    <title>Group</title>
    <desc>Created with Sketch.</desc>
    <g id="Website" stroke="none" stroke-width="1" fill="none" fill-rule="evenodd">
        <g id="Cart-All" transform="translate(-12.000000, -13.000000)">
            <g id="Header">
                <g id="Header-Logo">
                    <g id="Group" transform="translate(12.000000, 13.000000)">
                        <g id="House" transform="translate(20.093539, 31.375955)" fill-rule="nonzero">
                            <g id="E" transform="translate(23.609363, 0.000000)">
                                <polygon id="Path" fill="#11CC16" points="4.58848962 1.23433011 3.44661933 0.180804444 1.70333105 2.06998436 0.602241837 3.26312895 1.74411213 4.31624276 3.11831102 5.58393314 4.26018131 6.6374588 6.1731848 8.40225844 7.31505509 9.45578411 7.33729932 9.47637687 8.43838854 8.28364414 8.41573238 8.26305138 10.1594326 6.37387146 9.01756229 5.3203458 7.27427401 7.20952571 5.3608586 5.44431422 7.10414687 3.5551343 5.96268851 2.50202049 4.2189883 4.39120041 2.84478942 3.12351003"></polygon>
                                <polygon id="Path" fill="#E3201B" points="4.04268221 1.08565037 2.93170667 0 1.13486748 1.83810987 -1.17077582e-15 2.99871789 1.11056361 4.08478012 2.44768878 5.39159675 3.55866432 6.47724712 5.42058847 8.29682351 6.53115207 9.38247388 6.55298437 9.40389035 7.68785185 8.24287047 7.66601956 8.22186586 9.46327068 6.38375599 8.35229514 5.29810561 6.55504402 7.13621548 4.6935318 5.3166391 6.49078292 3.47852923 5.37980738 2.39287886 3.58255627 4.23098873 2.24543109 2.92376024"></polygon>
                            </g>
                            <g id="S" transform="translate(18.405862, 3.960400)">
                                <polygon id="Path" fill="#11CC16" points="0.682568211 2.56132764 0.709343669 2.60086575 3.71149039 7.12839023 6.6052995 5.17537276 7.73028066 6.77295917 4.91185477 8.8404724 5.68628339 10.0089057 5.70482025 10.0365 9.54730442 7.09914851 9.53041529 7.07361349 6.98839451 3.3380866 4.17202827 5.16054597 2.72327003 2.97524214 5.60801667 1.25615844 4.90938319 0.203044626 4.88466738 0.165977656"></polygon>
                                <polygon id="Path" fill="#E3201B" points="2.34155164e-15 2.38505361 0.0263635278 2.42500356 3.01697621 6.95994145 5.9161404 5.01392551 7.03659033 6.61439491 4.21322128 8.6749066 4.9847664 9.8449873 5.00289132 9.8725816 8.85320217 6.94511466 8.83631303 6.91916778 6.30376665 3.17787492 3.48286918 4.99333275 2.0390541 2.80432223 4.92833197 1.09224006 4.232582 0.0374788255 4.20786619 0"></polygon>
                            </g>
                            <g id="U" transform="translate(12.734820, 6.234664)">
                                <polygon id="Path" fill="#11CC16" points="3.72837953 0.827829002 6.5451577 8.05918304 4.94934041 8.68067258 2.13215031 1.44931854 0.619542902 2.03827151 3.9454667 10.5760303 3.94629056 10.5756185 5.45807411 9.98707735 7.0538914 9.36558781 8.4433317 8.82441005 8.56691073 8.77622299 5.24098693 0.23887603"></polygon>
                                <polygon id="Path" fill="#E3201B" points="3.10142188 0.598013787 5.96062886 7.81289362 4.36851894 8.44385582 1.50890003 1.22897599 2.34155164e-15 1.82698978 3.37576734 10.3449795 3.3765912 10.3445677 4.88507931 9.74696575 6.47718923 9.11600355 7.86333409 8.56700053 7.98650119 8.51840162 4.61073385 0"></polygon>
                            </g>
                            <g id="O" transform="translate(7.231021, 9.630411)">
                                <path d="M0.844456749,1.13713228 L0.84981184,1.18449563 L1.00057826,2.53002665 L1.77459496,9.4356032 L1.93071648,10.8284976 L3.32386415,10.6724044 L5.33325928,10.4471196 L6.72640695,10.2910265 L6.57028543,8.89813213 L5.79626874,1.99255558 L5.64550231,0.647024558 L5.64014722,0.599661207 L0.844456749,1.13713228 Z M5.17713776,9.05463712 L3.16774263,9.27992193 L2.39372593,2.37434537 L4.40312107,2.14906056 L5.17713776,9.05463712 Z" id="Shape" fill="#11CC16"></path>
                                <path d="M-2.34155164e-15,0.588129261 L0.0057670217,0.635492612 L0.170951,1.97937621 L1.01787933,8.87630381 L1.18883033,10.2675508 L2.58033028,10.0966308 L4.58725383,9.85034141 L5.97875378,9.6794215 L5.80780278,8.28817455 L4.96087445,1.39124695 L4.79569047,0.0473633509 L4.78992345,0 L-2.34155164e-15,0.588129261 Z M4.41671476,8.45950632 L2.40979121,8.70579574 L1.56286288,1.80886815 L3.56978643,1.56257872 L4.41671476,8.45950632 Z" id="Shape" fill="#E3201B"></path>
                            </g>
                            <g id="H" transform="translate(0.000000, 10.584267)">
                                <polygon id="Path" fill="#11CC16" points="4.89578949 0.694387909 4.7713866 4.03329822 2.33523186 3.94227821 2.46004668 0.603367905 0.837865867 0.542825186 0.495963866 9.69877869 2.11814468 9.75932141 2.27714971 5.4941487 4.71330445 5.58516871 4.55429942 9.85034141 6.17648024 9.91088413 6.51838224 0.754930627"></polygon>
                                <polygon id="Path" fill="#E3201B" points="4.45337654 0.175450326 4.30878907 3.51353692 1.87345819 3.40810199 2.01804566 0.0700153882 0.396276777 0 -4.68310329e-15 9.15389423 1.62176889 9.22390962 1.80631358 4.95997247 4.24164446 5.06540741 4.05709976 9.32934456 5.67886865 9.39935994 6.07555736 0.245465714"></polygon>
                            </g>
                        </g>
                        <polygon id="Path-2" fill="#FEF6EE" points="22.083066 15.9960451 22.91604 13.4639592 25.9310009 12.1735914 29.922604 12.1735914 34.8670013 13.4639592 36.8216097 14.063981 37.3027441 12.849883 37.3027441 10.6147447 38.4031861 9.32151931 40.5519527 9.46999311 42.5001841 10.7028488 43.392307 12.6587822 44.9312341 13.0632945 46.7598843 14.3451234 47.8073873 16.6257717 47.8073873 18.6772226 47.3526032 20.5971014 45.7642081 21.0766911 44.2163799 21.6763523 42.8540277 21.9833904 44.3051442 25.1289347 45.1032724 28.4812303 44.3051442 30.865872 42.9407706 32.5094993 40.8342361 33.7834545 38.524204 34.4251249 35.972136 34.4251249 31.2587014 34.6699728 24.7400622 33.7834545 16.6922324 33.3770837 14.1895509 30.9064868 14.1895509 28.3274024 16.9933533 26.0111286 16.9933533 24.9647526 17.3649143 23.402344 17.9016592 21.6434039"></polygon>
                        <g id="All-Head" transform="translate(11.889127, 9.419541)">
                            <path d="M9.48098367,20.4325496 L6.69139289,19.6339623 C6.69139289,19.6339623 4.34256734,20.667307 4.71865954,22.6396817 C4.85953964,22.9213907 5.58453665,23.808115 7.92306395,21.8855748" id="Tongue" fill="#11CC16" fill-rule="nonzero"></path>
                            <g id="Glow-Neon">
                                <path d="M24.1115058,25.250432 C24.1115058,25.250432 38.6114461,24.2838078 31.0100995,12.8729469" id="Path" stroke="#11CC16" stroke-width="1.1035879" stroke-linecap="round" stroke-linejoin="round"></path>
                                <path d="M30.9942427,12.8313495 C30.9942427,12.8313495 31.020125,12.8687209 31.0654191,12.9391927 C31.0416936,12.902889 31.0190466,12.8676532 30.9942427,12.8313495 M30.9820883,11.6571503 C30.7579983,11.6571503 30.5314367,11.7213997 30.3308268,11.8552526 C29.7916102,12.2152141 29.6466108,12.9441979 30.0070497,13.4833164 L30.0157002,13.4960839 C30.0214672,13.5047328 30.0272343,13.5137936 30.0334132,13.5228545 C30.2595629,13.862635 30.6319477,14.0467343 31.0121592,14.0467343 C31.2333657,14.0467343 31.4570437,13.9845442 31.655594,13.8539861 C32.1952225,13.4993787 32.3476366,12.7757491 31.9962602,12.2341595 C31.9736041,12.1991518 31.9600104,12.1789709 31.9575388,12.1752642 C31.7297415,11.8387784 31.3594163,11.6571503 30.9820883,11.6571503 L30.9820883,11.6571503 Z" id="Shape" fill="#11CC16" fill-rule="nonzero"></path>
                                <path d="M24.4789475,4.88419111 C24.4789475,4.88419111 11.1752523,-2.10293278 6.44464675,9.23173487 C6.01294398,9.02498354 5.67310163,8.99656553 5.67310163,8.99656553 C5.67310163,8.99656553 2.32987677,8.31782812 1.80754937,12.1822657 C1.48006493,14.6064456 2.17952227,15.6739743 2.74716198,16.1336047 L2.66148051,16.0858295 C-2.64706296,21.6882961 1.12786467,23.6343121 4.72607428,24.931656 C5.26034765,25.1244043 5.74889677,25.3245659 6.19790061,25.5280224 C6.27822698,26.1841078 6.32065578,26.9888729 6.28440593,27.9645579 C6.15217636,31.531636 5.83293052,32.7206621 6.36184879,32.7869707 C6.89035514,32.8528676 6.15258829,29.0003738 6.54886507,27.6791422 C6.67944692,27.2438113 6.72517116,26.5403625 6.74865118,25.7887268 C8.9479461,26.874789 10.0181406,27.9760899 10.3794033,28.322872 C11.3836889,29.2866132 12.131754,31.261459 15.3921809,30.4669903 C17.490553,29.9554661 18.7489995,28.8562245 19.4562835,27.9740306 C19.5518513,27.8776565 19.6152885,27.787872 19.6717229,27.6894386 C19.9967358,27.2339267 20.1631556,26.8735534 20.2179423,26.7421716 C20.3266918,26.7586458 20.4576856,26.7532917 20.6171026,26.7186959 C21.2172848,26.5881378 21.5970843,26.3591463 21.9398102,26.0959708 C22.005719,26.0473718 22.0720398,25.9950662 22.1387724,25.9374065 C22.4917966,25.648696 22.8431729,25.3360979 23.4066934,25.0749817 M5.04655592,9.25768175 C5.55075838,9.25768175 5.9680436,9.356527 6.31365297,9.5257995 C6.08791526,10.0451489 5.87700704,10.6019772 5.68381181,11.1995791 C4.7236027,11.1192674 3.69666091,11.3680279 3.88079367,12.8762418 C3.88079367,12.8762418 4.54606082,12.4656221 5.32955191,12.1007184 C5.17425425,12.4483242 5.12605843,12.7308569 5.1380044,12.9577891 C5.01813274,13.0401601 4.89496563,13.137358 4.76767922,13.2547367 C4.76767922,13.2547367 4.91968144,13.1892517 5.15654126,13.1151178 C5.2105041,13.3955912 5.35921088,13.5710415 5.47290359,13.6686512 C5.49020466,13.7020115 5.50915344,13.7333125 5.52892609,13.7633779 C5.38021931,13.8140361 5.22698131,13.8799329 5.06880014,13.9647751 C5.06880014,13.9647751 5.26735046,13.9359452 5.61007632,13.9351215 C5.53016188,13.9923694 5.46260534,14.0607374 5.41852882,14.1373425 C5.2883589,14.363451 5.34232174,14.6373347 5.52109942,14.8399675 C5.37074492,14.7856026 5.20762059,14.7370037 5.04737978,14.7077619 C4.75738097,14.5879121 4.35204173,14.5714379 3.83259785,14.9062762 C3.56154783,15.0809028 3.27072516,15.4552792 3.30779887,16.0524692 C1.34165641,15.1809836 1.46152807,9.25768175 5.04655592,9.25768175 Z M20.037105,27.002876 C20.0848889,26.9233879 20.1400875,26.8360746 20.2047605,26.7401123 C20.2051725,26.7401123 20.2059963,26.7401123 20.2064082,26.7401123 C20.1528573,26.8290731 20.0964229,26.9167982 20.037105,27.002876 Z" id="Shape" stroke="#11CC16" stroke-width="1.1035879" stroke-linecap="round" stroke-linejoin="round"></path>
                                <path d="M31.1151417,11.9285629 C31.1151417,11.9285629 36.4669378,13.1834857 35.8721108,7.76676583 C35.2772837,2.35004591 30.0577171,3.07655853 28.7362453,4.59589245" id="Path" stroke="#11CC16" stroke-width="1.1035879" stroke-linecap="round" stroke-linejoin="round"></path>
                                <path d="M25.4362731,3.91180093 C24.328181,-0.0230638926 26.7721624,-0.00411855225 27.2145754,0.0308891419 C23.9034811,-0.317540378 25.0568854,3.04896423 25.4111453,3.92703957 C24.6148844,4.42126584 24.587697,4.92084623 24.587697,4.92084623" id="Path" stroke="#11CC16" stroke-width="1.1035879" stroke-linecap="round" stroke-linejoin="round"></path>
                                <path d="M31.4677539,3.43404887 C31.4677539,3.43404887 31.2910359,0.142501908 27.2829558,0.0378906807" id="Path" stroke="#11CC16" stroke-width="1.1035879" stroke-linecap="round" stroke-linejoin="round"></path>
                            </g>
                            <g id="Head" transform="translate(0.041193, 0.000000)" fill-rule="nonzero">
                                <path d="M24.228082,20.226622 C21.7614444,20.7257905 20.1759254,22.2525378 20.1759254,22.2525378 L19.7648192,21.9004016 C19.7648192,21.9004016 21.3799972,20.6380653 20.9688909,18.6121495 C20.5577846,16.5862336 20.9688909,14.7365918 21.3215031,14.0908028 C21.6737033,13.4450138 22.701469,10.0389711 21.4681502,8.68849783 C20.2348314,7.33802454 19.6474191,6.31044576 14.6259909,6.54520323 C13.7745313,6.72147727 13.7745313,6.72147727 13.7745313,6.72147727 C13.7745313,6.72147727 12.7760127,7.10326706 11.9538002,6.72147727 C11.1315877,6.33968748 11.1315877,6.13417172 10.8086345,4.57818268 C10.8086345,4.57818268 6.87387793,6.72147727 5.64055915,11.4775814 C5.64055915,11.4775814 5.22945289,12.5051602 5.22945289,12.6517807 C5.22945289,12.7984011 5.31760594,13.7086012 5.69946516,13.9437705 L6.13981846,15.1179697 C6.13981846,15.1179697 5.34685297,14.6776965 4.75985255,14.6776965 C4.1724402,14.6776965 3.20358055,15.2061068 3.43838072,16.0870651 L2.26396795,16.8798864 C2.26396795,16.8798864 -0.349316743,19.3168338 0.472895779,21.5775071 C0.472895779,21.5775071 2.24501916,24.3554706 5.49432396,25.1301703 C5.49432396,25.1301703 9.43979066,26.8183648 10.6195585,28.3517018 C11.7993264,29.8850388 12.9197763,31.7721595 16.6357979,29.7079411 C20.3518196,27.6437227 19.2342532,28.1465979 20.2352433,26.6861593 L20.1751016,26.5922563 L20.2352433,26.5984341 C20.2352433,26.5984341 21.6448682,26.8628452 22.790034,25.1890656 C22.790034,25.1890656 26.6073904,24.2496238 26.5488963,22.1944662 C26.5480725,22.1936425 26.6947196,19.7274534 24.228082,20.226622 Z M11.9360872,13.6163456 C12.6408996,12.940903 14.2560776,13.5871039 14.2560776,13.5871039 C16.1060558,14.1155141 16.399762,16.5524615 16.399762,16.5524615 C15.7241966,16.6990819 14.3619437,16.2929927 14.3619437,16.2929927 C14.3619437,16.2929927 13.2167779,16.0582352 12.8349187,15.8819612 C12.4530595,15.7056871 11.6015996,14.8543824 11.6015996,14.8543824 C11.601188,14.0611492 11.9360872,13.6163456 11.9360872,13.6163456 Z M7.90123166,14.354802 C7.81307861,14.6776965 7.02011313,14.9421076 7.02011313,14.9421076 L6.52085382,13.8556335 C7.0497721,13.620876 7.90123166,14.354802 7.90123166,14.354802 Z M4.61238157,22.4580536 C4.40682844,21.9881267 4.84718174,21.0194433 4.84718174,21.0194433 C4.84718174,21.0194433 4.46532252,20.7846858 4.05421625,20.4321377 C3.64310999,20.0800015 3.05569764,18.9642857 3.05569764,18.9642857 C3.64310999,18.5824959 5.37568808,18.8469069 5.81604138,19.3753172 C6.25639468,19.9037275 10.1619042,20.57917 10.1619042,20.57917 C9.89744502,21.1664756 8.34117303,21.9296433 7.93006677,21.9004016 C7.5189605,21.8711599 7.19600729,22.3406748 6.37379477,22.9572221 C5.55199418,23.5737694 4.8179347,22.9279804 4.61238157,22.4580536 Z" id="Shape" fill="#F9C18A"></path>
                                <path d="M12.9778585,12.1019539 C12.9778585,12.1019539 8.97183804,15.8667225 13.6188217,18.8308446 C13.6188217,18.8308446 9.85295657,16.0269342 12.9778585,12.1019539 Z" id="Path" fill="#E3201B"></path>
                                <path d="M11.7935594,13.6468229 C11.7935594,13.6468229 15.0708754,11.8194212 16.3317935,15.9783353 C17.5922997,20.1376612 16.1427176,16.0413492 16.1427176,16.0413492 C16.1427176,16.0413492 15.7414977,13.2831547 11.7935594,13.6468229 Z" id="Path" fill="#E3201B"></path>
                                <path d="M11.4191149,14.8272 C11.4191149,14.8272 14.3182791,16.2135046 15.8312984,16.5915877 C15.8312984,16.5915877 12.5535704,16.5285739 11.4191149,14.8272 Z" id="Path" fill="#E3201B"></path>
                                <path d="M5.06303312,13.9639514 C5.06303312,13.9639514 6.32353929,13.7749099 8.02522262,14.3420345 C8.02522262,14.3420345 6.82774176,13.0187437 5.06303312,13.9639514 Z" id="Path" fill="#E3201B"></path>
                                <path d="M3.02439095,18.9782888 C3.02439095,18.9782888 4.09376155,18.3184967 6.35484598,19.2579385 C8.61593042,20.1973802 9.95099594,20.5569298 10.1722024,20.57917 C10.1722024,20.57917 8.74527648,20.6763679 6.06113981,19.6397283 C3.37370769,18.6014412 3.02439095,18.9782888 3.02439095,18.9782888 Z" id="Path" fill="#E3201B"></path>
                                <path d="M6.40757304,19.7879961 C6.40757304,19.7879961 5.44365655,19.9210254 4.83523576,20.9790814 C3.73950164,22.8847356 5.16889916,24.9328916 9.12342833,20.6932539 C9.12342833,20.6932539 6.66379357,23.0552436 5.47249166,23.0095277 C4.23381779,22.9617525 4.40641651,20.8839429 6.40757304,19.7879961 Z" id="Path" fill="#E3201B"></path>
                                <path d="M3.02439095,18.9782888 C3.02439095,18.9782888 4.16131809,20.7410291 4.92380074,20.8361677 L4.77632976,21.0635118 C4.48550709,21.0878112 3.8387768,20.7039622 3.02439095,18.9782888 Z" id="Path" fill="#E3201B"></path>
                                <path d="M7.88187094,21.8855748 C7.88187094,21.8855748 9.73967579,21.2542007 10.1701428,20.7447358 C10.1701428,20.7447358 9.24700736,21.9263485 7.58486932,22.1479266 L7.88187094,21.8855748 Z" id="Path" fill="#E3201B"></path>
                                <path d="M9.00149701,18.5561372 C9.00149701,18.5561372 9.44432189,19.944913 9.84966113,20.425548 C10.2550004,20.9061831 10.7254246,22.2117641 10.7254246,22.2117641 C10.7254246,22.2117641 10.5738343,20.895063 10.021436,20.2793394 C9.57696339,19.7847013 9.00149701,18.5561372 9.00149701,18.5561372 Z" id="Path" fill="#E3201B"></path>
                                <path d="M9.82906462,18.2110025 C9.82906462,18.2110025 12.3887984,21.9189351 12.8588107,21.9712407 C13.3288229,22.0235463 11.082568,20.0911216 9.82906462,18.2110025 Z" id="Path" fill="#E3201B"></path>
                                <path d="M8.95865628,24.4543158 C8.95865628,24.4543158 11.2963597,26.1915212 12.5263831,27.0819522 C13.8037784,28.006979 16.2193366,27.483511 17.3686216,26.4909399 C17.3686216,26.4909399 14.7285615,29.2837302 12.1972509,27.3788998 C12.1972509,27.3788998 11.100281,26.3867406 10.5256385,25.8645081 C9.95099594,25.3422757 8.95865628,24.4543158 8.95865628,24.4543158 Z" id="Path" fill="#E3201B"></path>
                                <path d="M3.87461472,12.875418 C3.87461472,12.875418 6.09285842,11.5051757 7.1988908,11.5480087 C7.1988908,11.5475968 3.54012746,10.1374045 3.87461472,12.875418 Z" id="Path" fill="#E3201B"></path>
                                <path d="M14.0760642,9.14277414 C14.0760642,9.14277414 15.4865129,7.73258185 17.9416164,8.41173111 C20.39672,9.09046852 20.4490351,12.0677699 20.4490351,12.0677699 C20.4490351,12.0677699 18.6727924,9.09046852 14.0760642,9.14277414 Z" id="Path" fill="#E3201B"></path>
                                <path d="M16.1670215,10.4578279 C10.8391173,8.63001438 9.53288687,14.0615611 9.53288687,14.0615611 C9.53288687,14.0615611 8.48823208,17.1949556 11.6221964,19.2319916 C14.7561608,21.2686157 16.8981974,19.597719 17.7859068,18.7620648 C18.6744401,17.9264105 21.4949257,12.2856414 16.1670215,10.4578279 Z M17.614132,18.5804366 C16.7704991,19.3740816 14.7363882,20.9617835 11.7593692,19.0268877 C8.78235019,17.0919918 9.77468985,14.1155141 9.77468985,14.1155141 C9.77468985,14.1155141 11.0150114,8.95620372 16.0763968,10.6925853 C21.1369584,12.428967 18.4573529,17.7867916 17.614132,18.5804366 Z" id="Shape" fill="#E3201B"></path>
                                <path d="M7.80937124,14.4268767 C7.80937124,14.4268767 8.69749258,9.25644618 5.04078889,9.25644618 C1.38408521,9.25644618 1.33218201,15.4190359 3.42149159,16.0981852 L3.36917646,16.4639126 C3.36917646,16.4639126 1.27986689,16.0462914 1.80219428,12.181442 C2.32452167,8.31659256 5.66774654,8.99574182 5.66774654,8.99574182 C5.66774654,8.99574182 8.22748031,9.20455242 8.22748031,12.75598 L8.12285006,14.3226773 L7.80937124,14.4268767 Z" id="Path" fill="#E3201B"></path>
                                <path d="M5.98122536,17.7171881 C5.98122536,17.7171881 7.02588015,17.4560719 7.54820754,18.1348093 C8.07053494,18.8135467 6.3989225,18.4486429 5.98122536,17.7171881 Z" id="Path" fill="#E3201B"></path>
                                <path d="M7.96590469,16.986145 C7.96590469,16.986145 8.69708065,17.5083775 8.07053494,18.6051479 C8.07053494,18.6051479 9.27172317,17.8217993 7.96590469,16.986145 Z" id="Path" fill="#E3201B"></path>
                                <path d="M11.1558915,5.89941424 C11.1558915,5.89941424 11.2440446,7.13250879 13.8869882,6.56003002 C16.5299319,5.98755126 20.4061943,6.38375599 21.5072836,8.45374035 C22.6083728,10.5237247 22.3884021,11.4924082 21.1987479,15.2357603 C20.7143181,16.6451289 21.1546714,18.7587699 21.1546714,18.7587699 C21.1546714,18.7587699 21.4191305,20.9168913 19.70097,21.9737118 C19.70097,21.9737118 20.7579827,21.048685 20.7579827,19.5515912 C20.7579827,18.0544975 20.1853998,16.8650596 21.0665183,14.1789398 C21.9476369,11.4924082 22.7401904,9.99531445 20.3176294,7.61726239 C19.8331996,7.30878282 17.454715,6.11975679 13.7547587,6.82444108 C12.8299756,6.95623475 11.3762742,7.00030326 11.1558915,5.89941424 Z" id="Path" fill="#E3201B"></path>
                                <path d="M13.2781555,16.1068341 C13.7119179,16.2427464 14.2317738,16.3069958 14.5810905,16.016226 C15.615859,15.1546249 14.9641855,13.1954296 13.4037942,13.4108298 C11.9402065,13.6126389 11.8335166,15.6537934 13.2781555,16.1068341 Z" id="Path" fill="#E3201B"></path>
                                <path d="M6.28893716,13.7880892 C5.9462113,13.7065419 5.55940892,13.8815804 5.41276179,14.1369306 C5.21791885,14.4754756 5.43418216,14.9219267 5.86753265,15.0747249 C6.30088314,15.2275232 6.87223021,15.0586626 7.06830895,14.7209413 C7.24708662,14.4124617 7.08643388,14.0043132 6.70663431,13.8412185 C6.32683473,13.6781239 5.78473469,13.8016804 5.59401105,14.1060415" id="Path" fill="#E3201B"></path>
                                <path d="M5.49597168,23.0964292 C5.49597168,23.0964292 6.41086848,24.3962442 6.27863891,27.9633224 C6.14640934,31.5304005 5.8271635,32.7194265 6.35608177,32.7857352 C6.88458812,32.851632 6.14682127,28.9991382 6.54309805,27.6779067 C6.93937482,26.3566751 6.5533963,22.5680189 7.14781147,22.4358134 C7.14781147,22.4358134 6.15670759,23.0964292 5.49597168,23.0964292 Z" id="Path" fill="#E3201B"></path>
                                <path d="M21.1105949,6.57650423 C21.1105949,6.57650423 29.4550633,7.60202374 29.6313694,12.1822657 C29.6313694,12.1822657 30.1306287,16.5569919 26.5723763,18.9078615 C26.5723763,18.9074497 39.3512726,10.1271081 21.1105949,6.57650423 Z" id="Path" fill="#E3201B"></path>
                                <path d="M30.9771451,12.830114 C30.9771451,12.830114 37.8485515,22.9592814 24.1057388,25.2491964 C24.1057388,25.2491964 38.641517,24.2805129 30.9771451,12.830114 Z" id="Path" fill="#E3201B"></path>
                                <path d="M20.1417352,22.2545971 C20.1417352,22.2545971 25.3394695,18.5553134 26.3083291,21.2859136 C27.2771888,24.0165137 23.4013383,24.633061 22.6083728,25.2496083 C21.8154073,25.8661555 19.789535,27.5395233 19.8772761,25.2496083 C19.8772761,25.2496083 19.2606167,27.0111131 20.6113356,26.7174603 C21.9620544,26.4238075 22.1968546,25.6309862 23.4009263,25.0733342 C24.6049981,24.5156823 26.8364235,23.8402397 26.5723763,21.6969451 C26.3079172,19.5536505 24.0468328,20.1701978 24.0468328,20.1701978 C24.0468328,20.1701978 21.5806071,20.9333655 20.1417352,22.2545971 Z" id="Path" fill="#E3201B"></path>
                                <path d="M21.8739014,22.3719758 C21.8739014,22.3719758 22.3439136,23.6932074 21.0224418,23.9572066 C21.0224418,23.9576184 22.5202197,24.0161019 21.8739014,22.3719758 Z" id="Path" fill="#E3201B"></path>
                                <path d="M22.9366811,21.0602169 C22.9366811,21.0602169 25.3394695,20.5598128 25.5396675,22.4613484 C25.5396675,22.4613484 26.2403607,20.2595704 22.9366811,21.0602169 Z" id="Path" fill="#E3201B"></path>
                                <path d="M25.4931194,4.13255533 C25.4931194,4.13255533 23.3786821,-0.425446447 27.2771888,0.0370669702 C27.2771888,0.036655115 24.1057388,-0.425858303 25.4931194,4.13255533 Z" id="Path" fill="#E3201B"></path>
                                <path d="M28.7308902,4.59465689 C28.7308902,4.59465689 34.2808247,1.55598904 35.4041581,7.8314271 C35.8004349,10.870095 34.2149159,12.059121 31.1093747,11.9269155 C31.1093747,11.9269155 36.4611708,13.1818383 35.8663437,7.76511841 C35.2719286,2.34881035 30.052362,3.07532296 28.7308902,4.59465689 Z" id="Path" fill="#E3201B"></path>
                                <path d="M27.5165202,8.64566488 C27.5165202,8.64566488 26.3330449,5.69801704 24.4389902,5.43360598 C24.4389902,5.43360598 24.917653,3.22894496 26.8998608,3.71328671 C28.8820685,4.19762845 31.5690887,7.89691208 30.9083528,12.2568115 C30.9083528,12.2568115 30.7320467,10.0550335 27.5165202,8.64566488 Z" id="Path" fill="#E3201B"></path>
                                <path d="M27.2771888,0.036655115 C27.2771888,0.036655115 30.801251,0.526350977 31.4619869,3.4328133 C31.4619869,3.43322516 31.2852689,0.141678197 27.2771888,0.036655115 Z" id="Path" fill="#E3201B"></path>
                                <path d="M7.46087836,19.9766258 C7.46087836,19.9766258 6.62054091,19.9766258 5.97133904,21.4280036 C5.97133904,21.4280036 6.96450256,20.1294241 7.65201393,20.1294241 L7.46087836,19.9766258 Z" id="Path" fill="#E3201B"></path>
                                <path d="M5.43459409,14.531076 C5.43459409,14.531076 6.75606592,15.3238974 7.92347588,14.354802 C7.92306395,14.354802 7.19641922,15.7201021 5.43459409,14.531076 Z" id="Path" fill="#E3201B"></path>
                                <path d="M8.72385611,13.4973194 C8.72385611,13.4973194 9.720727,13.5974003 9.74997404,13.8371 C9.77922108,14.0772116 9.73761614,14.1744094 9.73761614,14.1744094 C9.73761614,14.1744094 8.53725176,14.5907951 8.05282194,13.8449252 L8.03057772,13.6373502 C8.03057772,13.6377621 8.46516399,13.4503679 8.72385611,13.4973194 Z" id="Path" fill="#E3201B"></path>
                                <path d="M5.1557174,13.0908183 C5.34396946,11.9075583 7.99062049,-1.56958026 24.4575271,5.24415258 C24.8360909,5.4628477 9.32692181,-4.86442206 5.1557174,13.0908183 Z" id="Path" fill="#E3201B"></path>
                                <path d="M3.85854945,15.1867496 C4.00931587,15.0014147 4.68488127,14.2913763 5.58124121,15.1620383 C5.58124121,15.1620383 4.98847377,14.1562878 3.82683083,14.9050406 C3.43055405,15.1603908 2.99102461,15.8424231 3.59697382,17.0244476 C4.06698609,18.0166068 4.43278004,18.2258293 4.43278004,18.2258293 L4.85047718,17.8082081 C4.85047718,17.8077962 2.97001617,16.4363183 3.85854945,15.1867496 Z" id="Path" fill="#E3201B"></path>
                                <path d="M5.75754731,11.3602027 C5.75754731,11.3602027 4.87642878,13.063224 5.61090018,13.7674965 C5.61090018,13.7674965 4.43607548,13.2098445 5.75754731,11.3602027 Z" id="Path" fill="#E3201B"></path>
                                <path d="M4.7619122,13.253913 C4.7619122,13.253913 6.54227419,12.4825082 7.43286711,13.253913 C7.43286711,13.253913 6.36432037,11.7704105 4.7619122,13.253913 Z" id="Path" fill="#E3201B"></path>
                                <polygon id="Path" fill="#E3201B" points="19.0455892 15.9182044 23.780314 20.3440007 23.1195781 20.5425149 18.9244817 16.3807179"></polygon>
                                <path d="M12.5160848,13.1538322 C12.5160848,13.1538322 14.4982925,11.6122581 15.951582,12.9334896 C15.951582,12.9334896 14.4097276,10.9516423 12.5160848,13.1538322 Z" id="Path" fill="#E3201B"></path>
                                <path d="M3.18669142,16.3794823 C3.18669142,16.3794823 -4.83523576,21.9230536 6.19501709,25.2253088 C6.19501709,25.2253088 9.60332692,26.7071639 11.3857486,28.9995501 C13.3477717,31.5233989 18.4668273,29.6791112 20.2348314,26.6857474 C20.2348314,26.6857474 19.1852335,29.5399042 15.3868258,30.4653428 C12.1268108,31.2598116 11.3783338,29.2853776 10.3740482,28.3212245 C9.91556995,27.8809513 8.31851687,26.2277644 4.72071919,24.9304205 C1.12292151,23.6330765 -2.65241805,21.6870606 2.65612542,16.084594 L3.18669142,16.3794823 Z" id="Path" fill="#E3201B"></path>
                            </g>
                        </g>
                        <g id="Scranny's" fill-rule="nonzero">
                            <g id="S" transform="translate(29.232621, 0.832359)">
                                <polygon id="Path" fill="#11CC16" points="3.64475771 0 3.62910437 0.0448922195 1.81578797 5.14819031 5.10546192 6.28573444 4.50445588 8.13908296 1.16905768 7.1296258 0.701105066 8.44673881 0.689982953 8.47762795 5.33243542 9.7823853 5.34273367 9.75355544 6.79973051 5.49167757 3.66082299 4.33765923 4.53576257 1.87435313 7.63347708 3.1449265 8.05529352 1.95795974 8.07012301 1.91595051"></polygon>
                                <polygon id="Path" fill="#E3201B" points="2.95477476 0.062190139 2.93870949 0.107082358 1.12539309 5.21038045 4.41547897 6.34833644 3.81447292 8.20127309 0.478662801 7.19181594 0.0111221133 8.50892895 4.68310329e-15 8.53981809 4.64245247 9.8449873 4.65275072 9.81615743 6.10974756 5.55386771 2.9704281 4.39984937 3.84577961 1.93654327 6.94349412 3.20711664 7.36531057 2.02014988 7.38014005 1.97814065"></polygon>
                            </g>
                            <g id="'" transform="translate(29.148943, 0.478395)">
                                <polygon id="Rectangle" fill="#11CC16" transform="translate(0.967212, 1.108509) rotate(-60.797365) translate(-0.967212, -1.108509) " points="9.27991841e-05 0.576448717 1.93424945 0.576598507 1.93433184 1.6405684 0.000175190303 1.6404186"></polygon>
                                <polygon id="Rectangle" fill="#E3201B" transform="translate(1.210791, 1.715479) rotate(-60.797365) translate(-1.210791, -1.715479) " points="0.243671776 1.18341945 2.17782843 1.18356924 2.17791082 2.24753913 0.243754167 2.24738934"></polygon>
                            </g>
                            <g id="Y" transform="translate(22.994351, 0.000000)">
                                <polygon id="Path" fill="#11CC16" points="5.14995038 0.0407736673 3.63487139 3.39203963 1.59499343 0.41226708 0.444472601 1.19932241 2.96301336 4.87801328 3.05404992 5.01186623 3.08782819 5.59546509 3.28390693 8.98297431 4.67952618 8.90225069 4.48797867 5.59505323 4.45214075 4.97644668 4.55841872 4.74127735 6.42363831 0.616547272"></polygon>
                                <polygon id="Path" fill="#E3201B" points="4.70547778 -1.17056295e-15 3.19039879 3.35126597 1.15052083 0.371493413 -9.36620657e-15 1.15854875 2.51812883 4.83723962 2.60957732 4.97109256 2.64335559 5.55469142 2.83943433 8.94220064 4.23464165 8.86147702 4.04350607 5.55427956 4.00766815 4.93567302 4.11394612 4.70091554 5.97916571 0.575773604"></polygon>
                            </g>
                            <g id="N" transform="translate(15.870432, 0.258645)">
                                <polygon id="Path" fill="#11CC16" points="4.67252337 1.17056295e-15 3.23076794 0.735161576 5.6084286 5.39530345 1.61270642 1.52386433 0.170951 2.25902591 4.32238276 10.3960496 5.76413819 9.66088801 3.63239981 5.48302861 7.35048108 8.86559557 7.3739611 8.85571105 7.3821997 8.87259711 8.82395513 8.13702368"></polygon>
                                <polygon id="Path" fill="#E3201B" points="4.5019843 0.611605009 3.06022887 1.34717844 5.43788953 6.00690846 1.44175542 2.13546934 -4.68310329e-15 2.87104277 4.15143176 11.0080665 5.59318719 10.272493 3.46186074 6.09463362 7.17994201 9.47720058 7.2030101 9.46731606 7.21166063 9.48420212 8.65341606 8.74904054"></polygon>
                            </g>
                            <g id="N" transform="translate(9.173272, 4.045242)">
                                <polygon id="Path" fill="#11CC16" points="4.07522469 -4.68225181e-15 2.82419291 1.02675508 6.14352583 5.07034967 1.41209646 2.14288274 0.161064677 3.16963781 6.64402093 10.8495022 7.89505271 9.82315897 4.23217007 5.57857902 8.58791917 8.08801291 8.60851568 8.07318612 8.62046165 8.08801291 9.87149343 7.06125783"></polygon>
                                <polygon id="Path" fill="#E3201B" points="3.86266875 0.510288624 2.62811417 1.55681275 6.01212012 5.54645431 1.23414264 2.69559245 4.68310329e-15 3.74252843 6.59623703 11.328078 7.83037968 10.2815538 4.10941489 6.0855728 8.50470928 8.52416759 8.52530579 8.5093408 8.53725176 8.52375574 9.77180634 7.47681975"></polygon>
                            </g>
                            <g id="A" transform="translate(3.580085, 9.321519)">
                                <path d="M1.92948069,1.15319463 L0.790081973,2.81585417 L-4.68310329e-15,3.96863695 L7.42504044,8.81905593 L8.1479778,7.7642947 L5.29824522,5.90312094 L6.43764394,4.2404614 L9.42866855,6.35163128 L10.2187505,5.1988485 L2.71956266,2.34112591e-15 L1.92948069,1.15319463 Z M5.2842396,3.45093493 L4.14484088,5.11359447 L1.94307438,3.60579249 L3.0824731,1.94313295 L5.2842396,3.45093493 Z" id="Shape" fill="#11CC16"></path>
                                <path d="M2.15604225,1.76727077 L1.01664354,3.42993031 L0.226561567,4.58271309 L7.651602,9.43313207 L8.37453937,8.37837084 L5.52480679,6.51719708 L6.6642055,4.85453754 L9.65523011,6.96570742 L10.4453121,5.81292464 L2.94612423,0.61407614 L2.15604225,1.76727077 Z M5.51080116,4.06501107 L4.37140245,5.72767061 L2.16963595,4.21986863 L3.30903466,2.55720909 L5.51080116,4.06501107 Z" id="Shape" fill="#E3201B"></path>
                            </g>
                            <g id="R" transform="translate(1.162467, 16.625772)">
                                <path d="M9.25236245,5.9430709 L5.63767564,4.79028812 L5.66197952,4.70544594 L9.29685091,3.26065782 L8.49358717,1.96331386 L6.26998838,2.59180493 L6.58140755,1.51027311 L5.23810342,1.12395291 L2.67342649,0.386320201 L1.33012236,-2.34112591e-15 L0.943731908,1.34305989 L0.386390454,3.28001501 L-9.36620657e-15,4.6230749 L1.34330413,5.0093951 L3.90798106,5.74702781 L5.25128519,6.13334801 L8.865972,7.28613078 M1.72969458,3.66592336 L2.28703603,1.72896823 L4.85171297,2.46660094 L4.29437151,4.40355606 L1.72969458,3.66592336 Z" id="Shape" fill="#11CC16"></path>
                                <path d="M9.47892402,6.55714704 L5.86423721,5.40436426 L5.88854108,5.31952209 L9.52341247,3.87473396 L8.72014874,2.57739 L6.49654994,3.20588107 L6.80796911,2.12434925 L5.46466499,1.73802905 L2.89998805,1.00039634 L1.55668393,0.61407614 L1.17029347,1.95713603 L0.612952021,3.89409115 L0.226561567,5.23715104 L1.56986569,5.62347124 L4.13454263,6.36110395 L5.47784675,6.74742415 L9.09253357,7.90020692 M1.95625615,4.2799995 L2.5135976,2.34304437 L5.07827454,3.08067708 L4.52093308,5.01763221 L1.95625615,4.2799995 Z" id="Shape" fill="#E3201B"></path>
                            </g>
                            <g id="C" transform="translate(0.000000, 23.196098)">
                                <polygon id="Path" fill="#11CC16" points="8.80500634 6.66011084 0.0465481037 4.6387254 4.68310329e-15 4.62842902 1.3511308 0 1.39479539 0.00947267017 2.62523066 0.280473408 1.74946723 3.51147765 7.77147367 4.9303189 8.39348815 1.8957696 9.71331226 2.03991893"></polygon>
                                <polygon id="Path" fill="#E3201B" points="9.00396859 7.2832478 0.245510352 5.26186235 0.198962249 5.25156597 1.55009305 0.623136955 1.59375764 0.633021481 2.82419291 0.904022219 1.94801754 4.1346146 7.97043592 5.55345585 8.5924504 2.51890656 9.91186258 2.66346774"></polygon>
                            </g>
                            <g id="S" transform="translate(0.667327, 31.310882)">
                                <polygon id="Path" fill="#11CC16" points="-4.68310329e-15 4.94514569 0.0477838941 4.94473383 5.46384113 4.89407564 5.40246354 1.41431084 7.34924529 1.34182432 7.54738368 4.82076541 8.94506258 4.80758604 8.97801699 4.80717419 8.60892761 0 8.57844478 0 4.07440083 0.0963741226 4.06863381 3.44022669 1.45452526 3.46452615 1.58345939 0.119438015 0.323365145 0.131381817 0.278876692 0.131793672"></polygon>
                                <polygon id="Path" fill="#E3201B" points="0.128110268 5.58681613 0.175894162 5.58640427 5.5919514 5.53574608 5.53057381 2.05556943 7.47735556 1.98349476 7.67549395 5.46202399 9.07317285 5.44925648 9.10612726 5.44884463 8.73703787 0.64167044 8.70655504 0.64167044 4.2025111 0.738044563 4.19674408 4.08189713 1.58263553 4.10619659 1.71156965 0.761108456 0.451475413 0.773052257 0.40698696 0.773464112"></polygon>
                            </g>
                        </g>
                    </g>
                </g>
            </g>
        </g>
    </g>
</svg>